<svg width="20" height="20" viewBox="0 0 20 20" fill="none" xmlns="http://www.w3.org/2000/svg">
<path d="M9.99935 4.82766L9.54935 5.24844C9.60765 5.30718 9.67755 5.3539 9.75487 5.38581C9.83219 5.41772 9.91534 5.43417 9.99935 5.43417C10.0834 5.43417 10.1665 5.41772 10.2438 5.38581C10.3211 5.3539 10.391 5.30718 10.4493 5.24844L9.99935 4.82766ZM7.85435 15.2032C6.59102 14.2362 5.21018 13.2919 4.11435 12.0943C3.04102 10.9193 2.29102 9.54934 2.29102 7.77072H1.04102C1.04102 9.92804 1.96602 11.574 3.18018 12.9002C4.37185 14.203 5.89185 15.2469 7.08018 16.1564L7.85435 15.2032ZM2.29102 7.77072C2.29102 6.03094 3.30352 4.57115 4.68602 3.95696C6.02935 3.36058 7.83435 3.51838 9.54935 5.24844L10.4493 4.40769C8.41602 2.35475 6.05268 2.0157 4.16602 2.85322C2.32102 3.67293 1.04102 5.57617 1.04102 7.77072H2.29102ZM7.08018 16.1564C7.50768 16.4834 7.96602 16.8313 8.43018 17.0951C8.89435 17.3589 9.42435 17.5725 9.99935 17.5725V16.3587C9.74102 16.3587 9.43768 16.2616 9.06102 16.0472C8.68352 15.8336 8.29268 15.539 7.85435 15.2032L7.08018 16.1564ZM12.9185 16.1564C14.1068 15.2461 15.6269 14.2038 16.8185 12.9002C18.0327 11.5731 18.9577 9.92804 18.9577 7.77072H17.7077C17.7077 9.54934 16.9577 10.9193 15.8843 12.0943C14.7885 13.2919 13.4077 14.2362 12.1444 15.2032L12.9185 16.1564ZM18.9577 7.77072C18.9577 5.57617 17.6785 3.67293 15.8327 2.85322C13.946 2.0157 11.5843 2.35475 9.54935 4.40688L10.4493 5.24844C12.1643 3.51919 13.9693 3.36058 15.3127 3.95696C16.6952 4.57115 17.7077 6.03013 17.7077 7.77072H18.9577ZM12.1444 15.2032C11.706 15.539 11.3152 15.8336 10.9377 16.0472C10.5602 16.2608 10.2577 16.3587 9.99935 16.3587V17.5725C10.5743 17.5725 11.1044 17.3581 11.5685 17.0951C12.0335 16.8313 12.491 16.4834 12.9185 16.1564L12.1444 15.2032Z" fill="#333333"/>
</svg>
