<svg width="22" height="22" viewBox="0 0 22 22" fill="none" xmlns="http://www.w3.org/2000/svg">
<g clip-path="url(#clip0_2174_2071)">
<path fill-rule="evenodd" clip-rule="evenodd" d="M4.25006 5C4.25006 3.74022 4.7505 2.53204 5.6413 1.64124C6.5321 0.750445 7.74028 0.25 9.00006 0.25C10.2598 0.25 11.468 0.750445 12.3588 1.64124C13.2496 2.53204 13.7501 3.74022 13.7501 5C13.7501 6.25978 13.2496 7.46796 12.3588 8.35876C11.468 9.24955 10.2598 9.75 9.00006 9.75C7.74028 9.75 6.5321 9.24955 5.6413 8.35876C4.7505 7.46796 4.25006 6.25978 4.25006 5ZM9.00006 1.75C8.1381 1.75 7.31145 2.09241 6.70196 2.7019C6.09247 3.3114 5.75006 4.13805 5.75006 5C5.75006 5.86195 6.09247 6.6886 6.70196 7.2981C7.31145 7.90759 8.1381 8.25 9.00006 8.25C9.86201 8.25 10.6887 7.90759 11.2982 7.2981C11.9076 6.6886 12.2501 5.86195 12.2501 5C12.2501 4.13805 11.9076 3.3114 11.2982 2.7019C10.6887 2.09241 9.86201 1.75 9.00006 1.75ZM2.97606 12.664C4.55606 11.776 6.68606 11.25 9.00006 11.25C11.3141 11.25 13.4451 11.776 15.0251 12.664C16.5811 13.54 17.7501 14.866 17.7501 16.5V16.602C17.7511 17.764 17.7531 19.222 16.4741 20.264C15.8441 20.776 14.9641 21.141 13.7741 21.381C12.5811 21.623 11.0261 21.75 9.00006 21.75C6.97406 21.75 5.42006 21.623 4.22606 21.381C3.03606 21.141 2.15606 20.776 1.52606 20.264C0.248056 19.222 0.249056 17.764 0.250056 16.602V16.5C0.250056 14.866 1.42006 13.54 2.97606 12.664ZM3.71106 13.972C2.37106 14.725 1.75106 15.649 1.75106 16.5C1.75106 17.808 1.79106 18.544 2.47406 19.1C2.84406 19.402 3.46406 19.697 4.52406 19.911C5.58106 20.125 7.02606 20.25 9.00006 20.25C10.9741 20.25 12.4201 20.125 13.4761 19.911C14.5361 19.697 15.1561 19.402 15.5261 19.101C16.2101 18.544 16.2501 17.808 16.2501 16.5C16.2501 15.649 15.6291 14.725 14.2901 13.972C12.9731 13.232 11.1051 12.75 9.00006 12.75C6.89506 12.75 5.02706 13.232 3.71106 13.972ZM15.6901 6.447C16.4111 6.128 17.2481 6.188 18.0001 6.679C18.7521 6.189 19.5901 6.128 20.3101 6.447C20.7418 6.6437 21.1074 6.96103 21.3629 7.36077C21.6184 7.76051 21.7528 8.2256 21.7501 8.7C21.7501 9.648 21.3361 10.362 20.8401 10.903C20.4521 11.325 19.9731 11.682 19.5951 11.963L19.3671 12.135L19.3651 12.136C19.2151 12.25 19.0241 12.396 18.8211 12.511C18.5725 12.6592 18.2903 12.7414 18.0011 12.75C17.6661 12.75 17.3831 12.627 17.1791 12.511C16.99 12.3981 16.8086 12.2728 16.6361 12.136L16.6341 12.135L16.4061 11.964C16.0271 11.682 15.5481 11.325 15.1611 10.904C14.6641 10.362 14.2511 9.648 14.2511 8.7C14.2511 7.7 14.8341 6.825 15.6901 6.447ZM15.7511 8.7C15.7511 8.288 15.9911 7.955 16.2981 7.819C16.5651 7.701 16.9881 7.689 17.4691 8.172C17.5388 8.24215 17.6216 8.29781 17.7129 8.3358C17.8043 8.37379 17.9022 8.39334 18.0011 8.39334C18.0999 8.39334 18.1979 8.37379 18.2892 8.3358C18.3805 8.29781 18.4634 8.24215 18.5331 8.172C19.0131 7.689 19.4381 7.701 19.7031 7.819C19.869 7.89785 20.0089 8.02268 20.1061 8.17867C20.2032 8.33466 20.2535 8.51525 20.2511 8.699C20.2511 9.164 20.0621 9.532 19.7351 9.889C19.4531 10.197 19.1171 10.448 18.7451 10.726L18.4581 10.942C18.3382 11.0371 18.213 11.1252 18.0831 11.206C18.0563 11.2206 18.029 11.2339 18.0011 11.246C17.9731 11.2339 17.9458 11.2206 17.9191 11.206C17.8191 11.15 17.7071 11.066 17.5451 10.942L17.2571 10.726C16.8851 10.448 16.5491 10.196 16.2671 9.889C15.9401 9.532 15.7511 9.165 15.7511 8.7Z" fill="url(#paint0_linear_2174_2071)"/>
</g>
<defs>
<linearGradient id="paint0_linear_2174_2071" x1="11" y1="0.25" x2="11" y2="21.75" gradientUnits="userSpaceOnUse">
<stop stop-color="#FF488E"/>
<stop offset="1" stop-color="#FFA2C2"/>
</linearGradient>
<clipPath id="clip0_2174_2071">
<rect width="22" height="22" fill="white"/>
</clipPath>
</defs>
</svg>
