<svg width="13" height="13" viewBox="0 0 13 13" fill="none" xmlns="http://www.w3.org/2000/svg">
<path d="M4.95865 2.92937C5.64495 1.69871 5.98782 1.08337 6.50078 1.08337C7.01374 1.08337 7.35661 1.69871 8.0429 2.92937L8.22057 3.24787C8.41557 3.59779 8.51307 3.77275 8.66474 3.88812C8.8164 4.0035 9.00599 4.04629 9.38515 4.13187L9.72965 4.20987C11.0622 4.51158 11.7279 4.66217 11.8866 5.17188C12.0447 5.68104 11.5908 6.21242 10.6824 7.27463L10.4474 7.54925C10.1895 7.85096 10.0601 8.00208 10.0021 8.18842C9.94415 8.37529 9.96365 8.57679 10.0027 8.97925L10.0384 9.34596C10.1754 10.7635 10.2442 11.472 9.82932 11.7867C9.4144 12.1014 8.7904 11.8143 7.54349 11.2402L7.22011 11.0918C6.86586 10.9282 6.68874 10.8469 6.50078 10.8469C6.31282 10.8469 6.13569 10.9282 5.78145 11.0918L5.45861 11.2402C4.21115 11.8143 3.58715 12.1014 3.17278 11.7873C2.75732 11.472 2.82611 10.7635 2.96315 9.34596L2.9989 8.97979C3.0379 8.57679 3.0574 8.37529 2.9989 8.18896C2.94149 8.00208 2.81203 7.85096 2.5542 7.54979L2.31911 7.27463C1.41074 6.21296 0.95682 5.68158 1.11499 5.17188C1.27315 4.66217 1.93995 4.51104 3.27245 4.20987L3.61695 4.13187C3.99557 4.04629 4.18461 4.0035 4.33682 3.88812C4.48903 3.77275 4.58599 3.59779 4.78099 3.24787L4.95865 2.92937Z" fill="#FFC700"/>
</svg>
