<svg width="24" height="24" viewBox="0 0 24 24" fill="none" xmlns="http://www.w3.org/2000/svg">
<g clip-path="url(#clip0_2035_2075)">
<path fill-rule="evenodd" clip-rule="evenodd" d="M6.65107 0.5C6.86386 0.5 7.06793 0.586543 7.2184 0.740591C7.36886 0.894639 7.45339 1.10357 7.45339 1.32143V2.1571C8.16156 2.14286 8.94141 2.14286 9.80042 2.14286H14.1992C15.0583 2.14286 15.8381 2.14286 16.5463 2.1571V1.32143C16.5463 1.10357 16.6308 0.894639 16.7813 0.740591C16.9317 0.586543 17.1358 0.5 17.3486 0.5C17.5614 0.5 17.7655 0.586543 17.9159 0.740591C18.0664 0.894639 18.1509 1.10357 18.1509 1.32143V2.22719C18.429 2.2491 18.6926 2.27684 18.9415 2.31043C20.1952 2.48348 21.2104 2.8471 22.0116 3.66633C22.8118 4.48667 23.167 5.52605 23.336 6.80967C23.3888 7.22002 23.4269 7.66906 23.4505 8.15681C23.5087 8.31841 23.5158 8.49465 23.4708 8.66062C23.4997 9.5379 23.4997 10.5357 23.4997 11.6649V13.978C23.4997 15.991 23.4997 17.5857 23.336 18.8332C23.167 20.1168 22.8118 21.1562 22.0116 21.9765C21.2104 22.7958 20.1952 23.1594 18.9415 23.3324C17.7219 23.5 16.1654 23.5 14.1992 23.5H9.80042C7.83422 23.5 6.27666 23.5 5.05821 23.3324C3.80446 23.1594 2.78927 22.7958 1.98803 21.9765C1.18785 21.1562 0.832693 20.1168 0.663672 18.8332C0.5 17.5846 0.5 15.991 0.5 13.978V11.6649C0.5 10.5357 0.5 9.5379 0.528883 8.65952C0.484243 8.49344 0.491728 8.3172 0.550278 8.15571C0.5731 7.6687 0.610898 7.22002 0.663672 6.80967C0.832693 5.52605 1.18785 4.48667 1.98803 3.66633C2.78927 2.8471 3.80446 2.48348 5.05821 2.31043C5.30782 2.27684 5.57134 2.2491 5.84876 2.22719V1.32143C5.84876 1.10357 5.93329 0.894639 6.08375 0.740591C6.23422 0.586543 6.43829 0.5 6.65107 0.5ZM2.11853 9.2619C2.10463 9.9771 2.10463 10.7909 2.10463 11.7262V13.9167C2.10463 16.0053 2.10677 17.4893 2.25439 18.6152C2.39881 19.716 2.67053 20.3512 3.12303 20.8145C3.57554 21.2778 4.19599 21.556 5.27216 21.7038C6.37187 21.855 7.82031 21.8571 9.86033 21.8571H14.1393C16.1794 21.8571 17.6289 21.855 18.7286 21.7038C19.8037 21.556 20.4241 21.2778 20.8766 20.8145C21.3291 20.3512 21.6009 19.716 21.7453 18.6141C21.8929 17.4893 21.895 16.0053 21.895 13.9167V11.7262C21.895 10.7909 21.895 9.9771 21.8811 9.2619H2.11853ZM21.8073 7.61905H2.19235C2.20946 7.41168 2.23015 7.21454 2.25439 7.02762C2.39881 5.9269 2.67053 5.29167 3.12303 4.82838C3.57554 4.3651 4.19599 4.0869 5.27216 3.93905C6.37187 3.7879 7.82031 3.78571 9.86033 3.78571H14.1393C16.1794 3.78571 17.6289 3.7879 18.7286 3.93905C19.8037 4.0869 20.4241 4.3651 20.8766 4.82838C21.3291 5.29167 21.6009 5.9269 21.7453 7.02871C21.7695 7.2149 21.7902 7.41168 21.8073 7.61905Z" fill="#FFA2C2"/>
</g>
<defs>
<clipPath id="clip0_2035_2075">
<rect width="24" height="24" fill="white"/>
</clipPath>
</defs>
</svg>
