<svg width="18" height="18" viewBox="0 0 18 18" fill="none" xmlns="http://www.w3.org/2000/svg">
<path d="M12.5127 1.33325C15.5432 1.33344 17.9996 3.78481 18 6.80884V12.9426C18 13.9301 17.6068 14.8771 16.9072 15.5754C16.2074 16.2737 15.2582 16.6662 14.2686 16.6663C13.2789 16.6662 12.3297 16.2738 11.6299 15.5754C10.9302 14.8771 10.5371 13.9301 10.5371 12.9426V12.2864H7.46289V12.9426C7.46286 13.9299 7.07051 14.8772 6.37109 15.5754C5.67141 16.2736 4.7219 16.6661 3.73242 16.6663C2.74277 16.6663 1.79358 16.2737 1.09375 15.5754C0.394002 14.8771 3.1225e-05 13.9302 0 12.9426V6.80884C0.000368663 3.78488 2.45692 1.33356 5.4873 1.33325H12.5127ZM1.31738 12.9426C1.31741 13.5816 1.57167 14.1949 2.02441 14.6467C2.47724 15.0985 3.09208 15.3518 3.73242 15.3518C4.37251 15.3516 4.98679 15.0983 5.43945 14.6467C5.89207 14.1949 6.14645 13.5815 6.14648 12.9426V12.2864H5.4873C3.81758 12.2862 2.32381 11.5398 1.31738 10.3655V12.9426ZM16.6826 10.3665C15.6762 11.5405 14.1823 12.2863 12.5127 12.2864H11.8535V12.9426C11.8535 13.5816 12.1088 14.1949 12.5615 14.6467C13.0143 15.0984 13.6283 15.3518 14.2686 15.3518C14.9089 15.3518 15.5238 15.0986 15.9766 14.6467C16.4292 14.1949 16.6826 13.5815 16.6826 12.9426V10.3665ZM5.92676 4.39966C5.56328 4.39983 5.26868 4.69416 5.26855 5.05688V6.15259H4.1709C3.80719 6.15259 3.5127 6.44688 3.5127 6.80981C3.51285 7.17261 3.80729 7.46704 4.1709 7.46704H5.26855V8.56177C5.26858 8.92457 5.56322 9.21882 5.92676 9.21899C6.29034 9.21888 6.58591 8.92461 6.58594 8.56177V7.46704H7.68262C8.04622 7.46704 8.34164 7.17261 8.3418 6.80981C8.3418 6.44688 8.04632 6.15259 7.68262 6.15259H6.58594V5.05688C6.58581 4.69413 6.29029 4.39977 5.92676 4.39966ZM11.6348 7.24731C11.1498 7.24731 10.7568 7.64035 10.7568 8.12427C10.7571 8.60798 11.15 9.00024 11.6348 9.00024C12.1194 9.00005 12.5125 8.60786 12.5127 8.12427C12.5127 7.64047 12.1195 7.24751 11.6348 7.24731ZM13.3906 5.05688C12.9058 5.05688 12.513 5.44916 12.5127 5.93286C12.5127 6.41677 12.9057 6.80981 13.3906 6.80981C13.8754 6.80962 14.2686 6.41666 14.2686 5.93286C14.2683 5.44928 13.8752 5.05708 13.3906 5.05688Z" fill="#999999"/>
</svg>
