<svg width="30" height="30" viewBox="0 0 30 30" fill="none" xmlns="http://www.w3.org/2000/svg">
<path fill-rule="evenodd" clip-rule="evenodd" d="M15.424 2H15.576C18.0445 2 19.9921 2 21.4102 2.18502C22.8063 2.36642 24.0589 2.76549 24.6534 3.90586C24.74 4.07033 24.8123 4.24043 24.8703 4.41619C25.2761 5.63758 24.6755 6.79367 23.8199 7.88688C22.9497 8.99823 21.572 10.3442 19.8267 12.0493L16.8066 15L19.8267 17.9507C21.572 19.6558 22.9497 21.0018 23.8199 22.1131C24.6755 23.2063 25.2761 24.3624 24.8703 25.5838C24.8113 25.7591 24.7388 25.9297 24.6534 26.0941C24.0589 27.2345 22.8063 27.6336 21.4115 27.815C19.9921 28 18.0445 28 15.5772 28H15.424C12.9555 28 11.0079 28 9.58853 27.815C8.1937 27.6336 6.94105 27.2345 6.34537 26.0941C6.26041 25.9297 6.1883 25.7591 6.12965 25.5838C5.72395 24.3624 6.32453 23.2063 7.18006 22.1131C8.0503 21.0018 9.42796 19.6558 11.1733 17.9507L14.1934 15L11.1733 12.0493C9.42796 10.3442 8.0503 8.99823 7.18006 7.88688C6.32453 6.79367 5.72395 5.63758 6.12965 4.41619C6.18848 4.24043 6.26039 4.07033 6.34537 3.90586C6.94105 2.76549 8.1937 2.36642 9.58853 2.18502C11.0079 2 12.9567 2 15.424 2ZM15.5 13.7242L18.4784 10.8134C20.29 9.04419 21.5794 7.78167 22.3638 6.77795C23.1752 5.74279 23.2181 5.26874 23.1237 4.98093C23.0955 4.89694 23.0607 4.81527 23.0196 4.73665C22.8762 4.46214 22.4937 4.15498 21.1712 3.98326C19.8867 3.81637 18.0617 3.81395 15.5 3.81395C12.9383 3.81395 11.1121 3.81637 9.82876 3.98326C8.50503 4.15498 8.12384 4.46214 7.98043 4.73665C7.93929 4.81527 7.90445 4.89694 7.87625 4.98093C7.78187 5.26874 7.82477 5.74279 8.63617 6.77795C9.42061 7.78167 10.71 9.04419 12.5216 10.8134L15.5 13.7242ZM15.5 16.2758L12.5216 19.1866C10.71 20.9558 9.42061 22.2183 8.63617 23.222C7.82477 24.2572 7.78187 24.7325 7.87625 25.0191C7.90403 25.1037 7.93876 25.1851 7.98043 25.2633C8.12384 25.5379 8.50625 25.845 9.82876 26.0167C11.1133 26.1836 12.9383 26.186 15.5 26.186C18.0617 26.186 19.8879 26.1836 21.1712 26.0167C22.495 25.845 22.8762 25.5379 23.0196 25.2633C23.0604 25.1851 23.0951 25.1037 23.1237 25.0191C23.2181 24.7313 23.1752 24.2572 22.3638 23.222C21.5794 22.2183 20.29 20.9558 18.4784 19.1866L15.5 16.2758ZM12.1294 7.13953C12.1294 6.89899 12.2262 6.6683 12.3986 6.49821C12.571 6.32811 12.8048 6.23256 13.0486 6.23256H17.9514C18.1952 6.23256 18.429 6.32811 18.6014 6.49821C18.7738 6.6683 18.8706 6.89899 18.8706 7.13953C18.8706 7.38008 18.7738 7.61077 18.6014 7.78086C18.429 7.95096 18.1952 8.04651 17.9514 8.04651H13.0486C12.8048 8.04651 12.571 7.95096 12.3986 7.78086C12.2262 7.61077 12.1294 7.38008 12.1294 7.13953ZM12.1294 22.8605C12.1294 22.6199 12.2262 22.3892 12.3986 22.2191C12.571 22.049 12.8048 21.9535 13.0486 21.9535H17.9514C18.1952 21.9535 18.429 22.049 18.6014 22.2191C18.7738 22.3892 18.8706 22.6199 18.8706 22.8605C18.8706 23.101 18.7738 23.3317 18.6014 23.5018C18.429 23.6719 18.1952 23.7674 17.9514 23.7674H13.0486C12.8048 23.7674 12.571 23.6719 12.3986 23.5018C12.2262 23.3317 12.1294 23.101 12.1294 22.8605Z" fill="#333333"/>
</svg>
