<svg width="20" height="20" viewBox="0 0 20 20" fill="none" xmlns="http://www.w3.org/2000/svg">
<path d="M17.0042 15.4925L17.4843 15.9726C17.6115 15.8452 17.6829 15.6726 17.6829 15.4925C17.6829 15.3125 17.6115 15.1399 17.4843 15.0125L17.0042 15.4925ZM6.13529 2.13281C5.95513 2.13281 5.78234 2.20438 5.65495 2.33178C5.52755 2.45917 5.45598 2.63196 5.45598 2.81212C5.45598 2.99228 5.52755 3.16507 5.65495 3.29246C5.78234 3.41986 5.95513 3.49143 6.13529 3.49143V2.13281ZM15.6728 13.201C15.6106 13.1343 15.5356 13.0807 15.4523 13.0436C15.3689 13.0065 15.279 12.9865 15.1878 12.9849C15.0966 12.9833 15.006 13.0001 14.9214 13.0342C14.8368 13.0684 14.76 13.1193 14.6954 13.1838C14.6309 13.2483 14.5801 13.3251 14.5459 13.4097C14.5118 13.4943 14.495 13.5849 14.4966 13.6761C14.4982 13.7673 14.5182 13.8573 14.5553 13.9406C14.5924 14.0239 14.6459 14.0989 14.7127 14.1611L15.6728 13.201ZM14.7127 16.824C14.6459 16.8862 14.5924 16.9612 14.5553 17.0445C14.5182 17.1278 14.4982 17.2178 14.4966 17.309C14.495 17.4002 14.5118 17.4908 14.5459 17.5754C14.5801 17.66 14.6309 17.7368 14.6954 17.8013C14.76 17.8658 14.8368 17.9167 14.9214 17.9508C15.006 17.985 15.0966 18.0018 15.1878 18.0002C15.279 17.9986 15.3689 17.9786 15.4523 17.9415C15.5356 17.9043 15.6106 17.8508 15.6728 17.7841L14.7127 16.824ZM11.3433 14.8132C11.1632 14.8132 10.9904 14.8848 10.863 15.0122C10.7356 15.1396 10.664 15.3124 10.664 15.4925C10.664 15.6727 10.7356 15.8455 10.863 15.9729C10.9904 16.1003 11.1632 16.1718 11.3433 16.1718V14.8132ZM7.94678 16.1718C8.12694 16.1718 8.29973 16.1003 8.42712 15.9729C8.55452 15.8455 8.62609 15.6727 8.62609 15.4925C8.62609 15.3124 8.55452 15.1396 8.42712 15.0122C8.29973 14.8848 8.12694 14.8132 7.94678 14.8132V16.1718ZM8.85252 3.49143C9.03269 3.49143 9.20547 3.41986 9.33287 3.29246C9.46026 3.16507 9.53183 2.99228 9.53183 2.81212C9.53183 2.63196 9.46026 2.45917 9.33287 2.33178C9.20547 2.20438 9.03269 2.13281 8.85252 2.13281V3.49143ZM12.4755 2.13281C12.2953 2.13281 12.1226 2.20438 11.9952 2.33178C11.8678 2.45917 11.7962 2.63196 11.7962 2.81212C11.7962 2.99228 11.8678 3.16507 11.9952 3.29246C12.1226 3.41986 12.2953 3.49143 12.4755 3.49143V2.13281ZM5.68242 9.83164H13.8341V8.47302H5.68242V9.83164ZM17.4843 15.0125L15.6728 13.201L14.7127 14.1611L16.5242 15.9726L17.4843 15.0125ZM16.5242 15.0125L14.7127 16.824L15.6728 17.7841L17.4843 15.9726L16.5242 15.0125ZM17.6835 5.98223C17.6835 4.9613 17.278 3.98218 16.5561 3.26028C15.8342 2.53837 14.855 2.13281 13.8341 2.13281V3.49143C14.4947 3.49143 15.1283 3.75385 15.5954 4.22097C16.0625 4.68808 16.3249 5.32162 16.3249 5.98223H17.6835ZM13.8341 9.83164C14.855 9.83164 15.8342 9.42608 16.5561 8.70417C17.278 7.98227 17.6835 7.00315 17.6835 5.98223H16.3249C16.3249 6.64283 16.0625 7.27637 15.5954 7.74348C15.1283 8.2106 14.4947 8.47302 13.8341 8.47302V9.83164ZM3.19162 12.3224C3.19162 11.6618 3.45405 11.0283 3.92116 10.5612C4.38828 10.0941 5.02182 9.83164 5.68242 9.83164V8.47302C4.66149 8.47302 3.68238 8.87858 2.96047 9.60049C2.23857 10.3224 1.83301 11.3015 1.83301 12.3224H3.19162ZM5.68242 14.8132C5.02182 14.8132 4.38828 14.5508 3.92116 14.0837C3.45405 13.6166 3.19162 12.983 3.19162 12.3224H1.83301C1.83301 12.8279 1.93258 13.3285 2.12603 13.7955C2.31948 14.2626 2.60302 14.6869 2.96047 15.0444C3.68238 15.7663 4.66149 16.1718 5.68242 16.1718V14.8132ZM17.0042 14.8132H11.3433V16.1718H17.0042V14.8132ZM7.94678 14.8132H5.68242V16.1718H7.94678V14.8132ZM8.85252 2.13281H6.13529V3.49143H8.85252V2.13281ZM13.8341 2.13281H12.4755V3.49143H13.8341V2.13281Z" fill="#333333"/>
<path d="M4.32418 4.62298C5.32464 4.62298 6.13567 3.81195 6.13567 2.81149C6.13567 1.81103 5.32464 1 4.32418 1C3.32373 1 2.5127 1.81103 2.5127 2.81149C2.5127 3.81195 3.32373 4.62298 4.32418 4.62298Z" stroke="#333333" stroke-width="1.5"/>
</svg>
