<svg width="30" height="30" viewBox="0 0 30 30" fill="none" xmlns="http://www.w3.org/2000/svg">
<path d="M20.2686 3C24.8147 3.00002 28.4997 6.67744 28.5 11.2139V20.4141C28.5 21.8951 27.9106 23.3159 26.8613 24.3633C25.8117 25.4107 24.3877 25.9998 22.9033 26C21.4188 26 19.9951 25.4108 18.9453 24.3633C17.8957 23.3158 17.3047 21.8954 17.3047 20.4141V19.4287H12.6953V20.4141C12.6953 21.8952 12.1051 23.3158 11.0557 24.3633C10.006 25.4107 8.58211 25.9999 7.09766 26C5.61318 25.9999 4.18934 25.4108 3.13965 24.3633C2.09019 23.3158 1.50005 21.8952 1.5 20.4141V11.2139C1.50029 6.67754 5.18549 3.00019 9.73145 3H20.2686ZM3.47559 20.4141C3.47563 21.3725 3.85799 22.292 4.53711 22.9697C5.21628 23.6473 6.13725 24.0282 7.09766 24.0283C8.05815 24.0282 8.98 23.6475 9.65918 22.9697C10.3381 22.292 10.7197 21.3724 10.7197 20.4141V19.4287H9.73145C7.22667 19.4286 4.98532 18.3104 3.47559 16.5488V20.4141ZM26.5244 16.5498C25.0147 18.3111 22.7732 19.4287 20.2686 19.4287H19.2803V20.4141C19.2803 21.3725 19.6627 22.292 20.3418 22.9697C21.0211 23.6475 21.9427 24.0283 22.9033 24.0283C23.8636 24.0282 24.7848 23.6473 25.4639 22.9697C26.1428 22.292 26.5244 21.3724 26.5244 20.4141V16.5498ZM10.3906 7.60059C9.84507 7.60059 9.40234 8.04154 9.40234 8.58594V10.2295H7.75586C7.21043 10.2296 6.76855 10.6705 6.76855 11.2148C6.76878 11.759 7.21056 12.2001 7.75586 12.2002H9.40234V13.8428C9.40237 14.3872 9.84509 14.8281 10.3906 14.8281C10.936 14.828 11.3789 14.387 11.3789 13.8428V12.2002H13.0244C13.5697 12.2001 14.0115 11.759 14.0117 11.2148C14.0117 10.6705 13.5699 10.2296 13.0244 10.2295H11.3789V8.58594C11.3789 8.04164 10.936 7.60076 10.3906 7.60059ZM18.9512 11.8721C18.224 11.8722 17.6349 12.4599 17.6348 13.1855C17.6348 13.9114 18.2239 14.4999 18.9512 14.5C19.6786 14.5 20.2686 13.9114 20.2686 13.1855C20.2684 12.4598 19.6785 11.8721 18.9512 11.8721ZM21.5859 8.58594C20.8585 8.58594 20.2686 9.17452 20.2686 9.90039C20.2687 10.6261 20.8586 11.2148 21.5859 11.2148C22.3131 11.2147 22.9022 10.626 22.9023 9.90039C22.9023 9.17462 22.3132 8.5861 21.5859 8.58594Z" fill="#FFAAAA"/>
</svg>
