<svg width="19" height="26" viewBox="0 0 19 26" fill="none" xmlns="http://www.w3.org/2000/svg">
<path fill-rule="evenodd" clip-rule="evenodd" d="M9.42401 0H9.57599C12.0445 0 13.9921 0 15.4102 0.185023C16.8063 0.366419 18.0589 0.765488 18.6534 1.90586C18.74 2.07033 18.8123 2.24043 18.8703 2.41619C19.2761 3.63758 18.6755 4.79367 17.8199 5.88688C16.9497 6.99823 15.572 8.34419 13.8267 10.0493L10.8066 13L13.8267 15.9507C15.572 17.6558 16.9497 19.0018 17.8199 20.1131C18.6755 21.2063 19.2761 22.3624 18.8703 23.5838C18.8113 23.7591 18.7388 23.9297 18.6534 24.0941C18.0589 25.2345 16.8063 25.6336 15.4115 25.815C13.9921 26 12.0445 26 9.57722 26H9.42401C6.95548 26 5.00787 26 3.58853 25.815C2.1937 25.6336 0.941053 25.2345 0.345371 24.0941C0.260411 23.9297 0.188295 23.7591 0.129651 23.5838C-0.27605 22.3624 0.324534 21.2063 1.18006 20.1131C2.0503 19.0018 3.42796 17.6558 5.17334 15.9507L8.19342 13L5.17334 10.0493C3.42796 8.34419 2.0503 6.99823 1.18006 5.88688C0.324534 4.79367 -0.27605 3.63758 0.129651 2.41619C0.188484 2.24043 0.260391 2.07033 0.345371 1.90586C0.941053 0.765488 2.1937 0.366419 3.58853 0.185023C5.00787 0 6.95671 0 9.42401 0ZM9.5 11.7242L12.4784 8.8134C14.29 7.04419 15.5794 5.78167 16.3638 4.77795C17.1752 3.74279 17.2181 3.26874 17.1237 2.98093C17.0955 2.89694 17.0607 2.81527 17.0196 2.73665C16.8762 2.46214 16.4937 2.15498 15.1712 1.98326C13.8867 1.81637 12.0617 1.81395 9.5 1.81395C6.93832 1.81395 5.11205 1.81637 3.82876 1.98326C2.50503 2.15498 2.12384 2.46214 1.98043 2.73665C1.93929 2.81527 1.90445 2.89694 1.87625 2.98093C1.78187 3.26874 1.82477 3.74279 2.63617 4.77795C3.42061 5.78167 4.71003 7.04419 6.52159 8.8134L9.5 11.7242ZM9.5 14.2758L6.52159 17.1866C4.71003 18.9558 3.42061 20.2183 2.63617 21.222C1.82477 22.2572 1.78187 22.7325 1.87625 23.0191C1.90403 23.1037 1.93876 23.1851 1.98043 23.2633C2.12384 23.5379 2.50625 23.845 3.82876 24.0167C5.11328 24.1836 6.93832 24.186 9.5 24.186C12.0617 24.186 13.8879 24.1836 15.1712 24.0167C16.495 23.845 16.8762 23.5379 17.0196 23.2633C17.0604 23.1851 17.0951 23.1037 17.1237 23.0191C17.2181 22.7313 17.1752 22.2572 16.3638 21.222C15.5794 20.2183 14.29 18.9558 12.4784 17.1866L9.5 14.2758ZM6.12937 5.13953C6.12937 4.89899 6.22622 4.6683 6.39862 4.49821C6.57101 4.32811 6.80483 4.23256 7.04863 4.23256H11.9514C12.1952 4.23256 12.429 4.32811 12.6014 4.49821C12.7738 4.6683 12.8706 4.89899 12.8706 5.13953C12.8706 5.38008 12.7738 5.61077 12.6014 5.78086C12.429 5.95096 12.1952 6.04651 11.9514 6.04651H7.04863C6.80483 6.04651 6.57101 5.95096 6.39862 5.78086C6.22622 5.61077 6.12937 5.38008 6.12937 5.13953ZM6.12937 20.8605C6.12937 20.6199 6.22622 20.3892 6.39862 20.2191C6.57101 20.049 6.80483 19.9535 7.04863 19.9535H11.9514C12.1952 19.9535 12.429 20.049 12.6014 20.2191C12.7738 20.3892 12.8706 20.6199 12.8706 20.8605C12.8706 21.101 12.7738 21.3317 12.6014 21.5018C12.429 21.6719 12.1952 21.7674 11.9514 21.7674H7.04863C6.80483 21.7674 6.57101 21.6719 6.39862 21.5018C6.22622 21.3317 6.12937 21.101 6.12937 20.8605Z" fill="#333333"/>
</svg>
