<svg width="18" height="18" viewBox="0 0 18 18" fill="none" xmlns="http://www.w3.org/2000/svg">
<path fill-rule="evenodd" clip-rule="evenodd" d="M9 1C5.6865 1 3 4.00225 3 7.375C3 10.7215 4.91475 14.359 7.90275 15.7555C8.24619 15.9163 8.62078 15.9997 9 15.9997C9.37922 15.9997 9.75381 15.9163 10.0972 15.7555C13.0852 14.359 15 10.7215 15 7.375C15 4.00225 12.3135 1 9 1ZM9 8.5C9.39782 8.5 9.77936 8.34196 10.0607 8.06066C10.342 7.77936 10.5 7.39782 10.5 7C10.5 6.60218 10.342 6.22064 10.0607 5.93934C9.77936 5.65804 9.39782 5.5 9 5.5C8.60218 5.5 8.22064 5.65804 7.93934 5.93934C7.65804 6.22064 7.5 6.60218 7.5 7C7.5 7.39782 7.65804 7.77936 7.93934 8.06066C8.22064 8.34196 8.60218 8.5 9 8.5Z" fill="#FFA2C2"/>
</svg>
