<svg width="31" height="30" viewBox="0 0 31 30" fill="none" xmlns="http://www.w3.org/2000/svg">
<path fill-rule="evenodd" clip-rule="evenodd" d="M12.4926 3.5H18.5074C24.1773 3.5 27.0122 3.5 28.7747 5.18475C29.9897 6.34337 30.3662 7.98931 30.4847 10.6717C30.5072 11.2036 30.5192 11.4709 30.4157 11.6477C30.3107 11.8246 29.8982 12.0474 29.0702 12.4901C28.6038 12.7393 28.2153 13.1033 27.9449 13.5446C27.6744 13.9858 27.5318 14.4883 27.5318 15C27.5318 15.5117 27.6744 16.0142 27.9449 16.4554C28.2153 16.8967 28.6038 17.2607 29.0702 17.5099C29.8982 17.9541 30.3122 18.1754 30.4157 18.3523C30.5192 18.5291 30.5072 18.795 30.4832 19.3269C30.3662 22.0107 29.9882 23.6566 28.7747 24.8152C27.0137 26.5 24.1788 26.5 18.5074 26.5H12.4926C6.8227 26.5 3.98777 26.5 2.22531 24.8152C1.01033 23.6566 0.633843 22.0107 0.515346 19.3283C0.492846 18.7964 0.480846 18.5291 0.584344 18.3523C0.689342 18.1754 1.10183 17.9541 1.92981 17.5099C2.3962 17.2607 2.7847 16.8967 3.05515 16.4554C3.3256 16.0142 3.46819 15.5117 3.46819 15C3.46819 14.4883 3.3256 13.9858 3.05515 13.5446C2.7847 13.1033 2.3962 12.7393 1.92981 12.4901C1.10183 12.0474 0.687842 11.8246 0.584344 11.6477C0.480846 11.4709 0.492846 11.205 0.516846 10.6717C0.633843 7.98931 1.01183 6.34481 2.22531 5.18475C3.98627 3.5 6.8212 3.5 12.4926 3.5ZM20.8219 9.92563C21.0325 10.1278 21.1509 10.4018 21.1509 10.6875C21.1509 10.9732 21.0325 11.2472 20.8219 11.4494L11.7996 20.0744C11.5879 20.2765 11.3012 20.39 11.0024 20.39C10.7035 20.39 10.4168 20.2765 10.2051 20.0744C9.99445 19.8722 9.87612 19.5982 9.87612 19.3125C9.87612 19.0268 9.99445 18.7528 10.2051 18.5506L19.2274 9.92563C19.4391 9.72346 19.7258 9.60995 20.0246 9.60995C20.3235 9.60995 20.6102 9.72346 20.8219 9.92563ZM19.2724 20.0312C19.475 20.0399 19.6774 20.0092 19.8673 19.9409C20.0572 19.8725 20.2306 19.7681 20.3772 19.6337C20.5238 19.4994 20.6405 19.338 20.7202 19.1592C20.7999 18.9805 20.841 18.7881 20.841 18.5938C20.841 18.3994 20.7999 18.207 20.7202 18.0283C20.6405 17.8495 20.5238 17.6881 20.3772 17.5538C20.2306 17.4194 20.0572 17.315 19.8673 17.2466C19.6774 17.1783 19.475 17.1476 19.2724 17.1562C18.4414 17.1562 17.7679 17.8003 17.7679 18.5938C17.7679 19.3872 18.4429 20.0312 19.2724 20.0312ZM11.7531 12.8438C12.5841 12.8438 13.2576 12.1997 13.2576 11.4062C13.2576 10.6128 12.5841 9.96875 11.7531 9.96875C11.5505 9.96006 11.3481 9.99081 11.1582 10.0591C10.9683 10.1275 10.7949 10.2319 10.6483 10.3663C10.5017 10.5006 10.385 10.662 10.3053 10.8408C10.2256 11.0195 10.1845 11.2119 10.1845 11.4062C10.1845 11.6006 10.2256 11.793 10.3053 11.9717C10.385 12.1505 10.5017 12.3119 10.6483 12.4462C10.7949 12.5806 10.9683 12.685 11.1582 12.7534C11.3481 12.8217 11.5505 12.8524 11.7531 12.8438Z" fill="#FFAAAA"/>
</svg>
