<svg width="24" height="20" viewBox="0 0 24 20" fill="none" xmlns="http://www.w3.org/2000/svg">
<g clip-path="url(#clip0_1985_13472)">
<path fill-rule="evenodd" clip-rule="evenodd" d="M9.75164 0.277771H14.2484C16.2589 0.277771 17.8506 0.277771 19.0964 0.447771C20.3771 0.623327 21.4146 0.992215 22.2327 1.82333C23.3564 2.96444 23.6291 4.53444 23.7153 6.61999V6.64666C23.724 6.82888 23.7316 7.01444 23.724 7.17111C23.7198 7.39588 23.6641 7.61655 23.5615 7.81555C23.4863 7.9488 23.3871 8.06641 23.2691 8.16222C23.1802 8.23372 23.0877 8.30048 22.992 8.36222C22.8142 8.47666 22.572 8.61444 22.2895 8.77555L22.2676 8.78666C22.0551 8.90682 21.8781 9.08269 21.7548 9.29604C21.6315 9.50938 21.5665 9.75243 21.5665 9.99999C21.5665 10.2476 21.6315 10.4906 21.7548 10.7039C21.8781 10.9173 22.0551 11.0932 22.2676 11.2133L22.2895 11.2244C22.5731 11.3855 22.8131 11.5233 22.992 11.6378C23.0847 11.6978 23.1818 11.7644 23.2691 11.8378C23.3498 11.9056 23.4709 12.02 23.5615 12.1844C23.6924 12.4222 23.7175 12.6622 23.7251 12.8289C23.7316 12.9844 23.724 13.1711 23.7164 13.3533L23.7153 13.38C23.628 15.4644 23.3553 17.0355 22.2327 18.1767C21.4146 19.0078 20.3782 19.3767 19.0964 19.5522C17.8506 19.7222 16.2589 19.7222 14.2484 19.7222H9.75273C7.74219 19.7222 6.15055 19.7222 4.90473 19.5522C3.62292 19.3767 2.58655 19.0078 1.76837 18.1767C0.644734 17.0355 0.372006 15.4655 0.285824 13.38V13.3533C0.275798 13.1787 0.272523 13.0038 0.276006 12.8289C0.283643 12.6622 0.308734 12.4222 0.439643 12.1844C0.514831 12.0512 0.614019 11.9336 0.732006 11.8378C0.820909 11.7663 0.913397 11.6995 1.0091 11.6378C1.18692 11.5233 1.4291 11.3855 1.71164 11.2244L1.73346 11.2133C1.94597 11.0932 2.12304 10.9173 2.24634 10.7039C2.36963 10.4906 2.43464 10.2476 2.43464 9.99999C2.43464 9.75243 2.36963 9.50938 2.24634 9.29604C2.12304 9.08269 1.94597 8.90682 1.73346 8.78666L1.71164 8.77555C1.42801 8.61444 1.18801 8.47666 1.0091 8.36222C0.912581 8.30173 0.820023 8.23492 0.732006 8.16222C0.614019 8.06641 0.514831 7.9488 0.439643 7.81555C0.336581 7.61664 0.280548 7.39597 0.276006 7.17111C0.272181 6.98733 0.275821 6.80347 0.286915 6.61999C0.372006 4.53555 0.644734 2.96444 1.76837 1.82333C2.58655 0.992215 3.62292 0.623327 4.90473 0.447771C6.14946 0.277771 7.74001 0.277771 9.75164 0.277771ZM22.0909 13.0289V13.0511L22.0811 13.31C21.996 15.3722 21.72 16.3456 21.0775 16.9967C20.6149 17.4678 19.98 17.75 18.8793 17.9C17.7556 18.0533 16.2731 18.0555 14.1884 18.0555H9.81382C7.7291 18.0555 6.24655 18.0533 5.12292 17.9C4.0211 17.75 3.38728 17.4678 2.92364 16.9967C2.28219 16.3456 2.00619 15.3722 1.92001 13.31L1.91128 13.0289C2.04655 12.9433 2.24182 12.8322 2.53092 12.6678C2.99734 12.4029 3.38586 12.016 3.65632 11.547C3.92679 11.078 4.06939 10.5439 4.06939 9.99999C4.06939 9.45608 3.92679 8.92203 3.65632 8.45303C3.38586 7.98403 2.99734 7.5971 2.53092 7.33222C2.32211 7.21591 2.11553 7.09551 1.91128 6.9711V6.94888L1.9211 6.68999C2.00619 4.62777 2.28219 3.65444 2.92473 3.00333C3.38728 2.53222 4.0211 2.24999 5.12292 2.09999C6.24655 1.94666 7.7291 1.94444 9.81382 1.94444H14.1884C16.2731 1.94444 17.7556 1.94666 18.8793 2.09999C19.9811 2.24999 20.6149 2.53222 21.0786 3.00333C21.7189 3.65444 21.996 4.62777 22.0811 6.68999L22.0909 6.94888V6.9711C21.9556 7.05666 21.7604 7.16777 21.4713 7.33222C21.0046 7.59686 20.6158 7.9837 20.3451 8.45273C20.0744 8.92176 19.9317 9.45594 19.9317 9.99999C19.9317 10.5441 20.0744 11.0782 20.3451 11.5473C20.6158 12.0163 21.0046 12.4031 21.4713 12.6678C21.7593 12.8322 21.9556 12.9433 22.0909 13.0289ZM15.8509 6.07777C16.0041 6.23402 16.0902 6.44583 16.0902 6.66666C16.0902 6.88749 16.0041 7.0993 15.8509 7.25555L9.30546 13.9222C9.15036 14.0694 8.94522 14.1496 8.73326 14.1457C8.52129 14.1419 8.31905 14.0545 8.16915 13.9018C8.01924 13.7491 7.93337 13.5431 7.92963 13.3272C7.92589 13.1114 8.00457 12.9024 8.1491 12.7444L14.6946 6.07777C14.848 5.92172 15.0559 5.83406 15.2727 5.83406C15.4896 5.83406 15.6975 5.92172 15.8509 6.07777Z" fill="#FF488E"/>
<path d="M15.8181 12.7778C15.8181 13.0724 15.7032 13.3551 15.4986 13.5634C15.294 13.7718 15.0165 13.8889 14.7272 13.8889C14.4379 13.8889 14.1604 13.7718 13.9558 13.5634C13.7512 13.3551 13.6363 13.0724 13.6363 12.7778C13.6363 12.4831 13.7512 12.2004 13.9558 11.9921C14.1604 11.7837 14.4379 11.6666 14.7272 11.6666C15.0165 11.6666 15.294 11.7837 15.4986 11.9921C15.7032 12.2004 15.8181 12.4831 15.8181 12.7778ZM10.3636 7.2222C10.3636 7.51688 10.2486 7.7995 10.0441 8.00787C9.83948 8.21624 9.562 8.33331 9.27267 8.33331C8.98334 8.33331 8.70587 8.21624 8.50128 8.00787C8.2967 7.7995 8.18176 7.51688 8.18176 7.2222C8.18176 6.92751 8.2967 6.64489 8.50128 6.43652C8.70587 6.22815 8.98334 6.11108 9.27267 6.11108C9.562 6.11108 9.83948 6.22815 10.0441 6.43652C10.2486 6.64489 10.3636 6.92751 10.3636 7.2222Z" fill="#FF488E"/>
</g>
<defs>
<clipPath id="clip0_1985_13472">
<rect width="24" height="20" fill="white"/>
</clipPath>
</defs>
</svg>
