<svg width="24" height="25" viewBox="0 0 24 25" fill="none" xmlns="http://www.w3.org/2000/svg">
<path d="M21.0571 20.7731L21.7234 21.4386C21.9 21.262 21.9992 21.0226 21.9992 20.7731C21.9992 20.5235 21.9 20.2841 21.7234 20.1075L21.0571 20.7731ZM5.97143 2.25C5.72137 2.25 5.48155 2.34923 5.30473 2.52586C5.12791 2.70249 5.02857 2.94206 5.02857 3.19185C5.02857 3.44164 5.12791 3.68121 5.30473 3.85784C5.48155 4.03447 5.72137 4.1337 5.97143 4.1337V2.25ZM19.2091 17.5959C19.1228 17.5033 19.0187 17.4291 18.9031 17.3776C18.7874 17.3262 18.6626 17.2985 18.536 17.2963C18.4094 17.294 18.2836 17.3173 18.1662 17.3647C18.0488 17.412 17.9422 17.4825 17.8526 17.572C17.7631 17.6614 17.6925 17.7679 17.6451 17.8852C17.5977 18.0025 17.5744 18.1281 17.5766 18.2546C17.5789 18.381 17.6066 18.5058 17.6581 18.6213C17.7096 18.7368 17.7839 18.8408 17.8766 18.927L19.2091 17.5959ZM17.8766 22.6191C17.7839 22.7053 17.7096 22.8093 17.6581 22.9248C17.6066 23.0404 17.5789 23.1651 17.5766 23.2915C17.5744 23.418 17.5977 23.5436 17.6451 23.6609C17.6925 23.7782 17.7631 23.8847 17.8526 23.9741C17.9422 24.0636 18.0488 24.1341 18.1662 24.1815C18.2836 24.2288 18.4094 24.2521 18.536 24.2499C18.6626 24.2476 18.7874 24.2199 18.9031 24.1685C19.0187 24.117 19.1228 24.0428 19.2091 23.9502L17.8766 22.6191ZM13.2 19.8312C12.9499 19.8312 12.7101 19.9304 12.5333 20.1071C12.3565 20.2837 12.2571 20.5233 12.2571 20.7731C12.2571 21.0229 12.3565 21.2624 12.5333 21.439C12.7101 21.6157 12.9499 21.7149 13.2 21.7149V19.8312ZM8.48571 21.7149C8.73578 21.7149 8.97559 21.6157 9.15242 21.439C9.32924 21.2624 9.42857 21.0229 9.42857 20.7731C9.42857 20.5233 9.32924 20.2837 9.15242 20.1071C8.97559 19.9304 8.73578 19.8312 8.48571 19.8312V21.7149ZM9.74286 4.1337C9.99292 4.1337 10.2327 4.03447 10.4096 3.85784C10.5864 3.68121 10.6857 3.44164 10.6857 3.19185C10.6857 2.94206 10.5864 2.70249 10.4096 2.52586C10.2327 2.34923 9.99292 2.25 9.74286 2.25V4.1337ZM14.7714 2.25C14.5214 2.25 14.2815 2.34923 14.1047 2.52586C13.9279 2.70249 13.8286 2.94206 13.8286 3.19185C13.8286 3.44164 13.9279 3.68121 14.1047 3.85784C14.2815 4.03447 14.5214 4.1337 14.7714 4.1337V2.25ZM5.34286 12.9243H16.6571V11.0406H5.34286V12.9243ZM21.7234 20.1075L19.2091 17.5959L17.8766 18.927L20.3909 21.4386L21.7234 20.1075ZM20.3909 20.1075L17.8766 22.6191L19.2091 23.9502L21.7234 21.4386L20.3909 20.1075ZM22 7.58715C22 6.17165 21.4371 4.81413 20.4351 3.81322C19.4331 2.81231 18.0742 2.25 16.6571 2.25V4.1337C17.574 4.1337 18.4534 4.49755 19.1017 5.14519C19.7501 5.79284 20.1143 6.67124 20.1143 7.58715H22ZM16.6571 12.9243C18.0742 12.9243 19.4331 12.362 20.4351 11.3611C21.4371 10.3602 22 9.00265 22 7.58715H20.1143C20.1143 8.50306 19.7501 9.38146 19.1017 10.0291C18.4534 10.6768 17.574 11.0406 16.6571 11.0406V12.9243ZM1.88571 16.3778C1.88571 15.4618 2.24995 14.5834 2.89829 13.9358C3.54663 13.2881 4.42597 12.9243 5.34286 12.9243V11.0406C3.92584 11.0406 2.56687 11.6029 1.56489 12.6038C0.562907 13.6047 0 14.9623 0 16.3778H1.88571ZM5.34286 19.8312C4.42597 19.8312 3.54663 19.4674 2.89829 18.8197C2.24995 18.1721 1.88571 17.2937 1.88571 16.3778H0C0 17.0786 0.138197 17.7727 0.406701 18.4202C0.675205 19.0677 1.06876 19.6561 1.56489 20.1517C2.56687 21.1526 3.92584 21.7149 5.34286 21.7149V19.8312ZM21.0571 19.8312H13.2V21.7149H21.0571V19.8312ZM8.48571 19.8312H5.34286V21.7149H8.48571V19.8312ZM9.74286 2.25H5.97143V4.1337H9.74286V2.25ZM16.6571 2.25H14.7714V4.1337H16.6571V2.25Z" fill="#FF488E"/>
<path d="M3.77203 5.86468C5.28687 5.86468 6.51489 4.71972 6.51489 3.30734C6.51489 1.89496 5.28687 0.75 3.77203 0.75C2.25719 0.75 1.02917 1.89496 1.02917 3.30734C1.02917 4.71972 2.25719 5.86468 3.77203 5.86468Z" stroke="#FF488E" stroke-width="1.5"/>
</svg>
