<svg width="20" height="20" viewBox="0 0 20 20" fill="none" xmlns="http://www.w3.org/2000/svg">
<path d="M7.62704 4.50699C8.68288 2.61366 9.21038 1.66699 9.99954 1.66699C10.7887 1.66699 11.3162 2.61366 12.372 4.50699L12.6454 4.99699C12.9454 5.53533 13.0954 5.80449 13.3287 5.98199C13.562 6.15949 13.8537 6.22533 14.437 6.35699L14.967 6.47699C17.017 6.94116 18.0412 7.17283 18.2854 7.95699C18.5287 8.74033 17.8304 9.55783 16.4329 11.192L16.0712 11.6145C15.6745 12.0787 15.4754 12.3112 15.3862 12.5978C15.297 12.8853 15.327 13.1953 15.387 13.8145L15.442 14.3787C15.6529 16.5595 15.7587 17.6495 15.1204 18.1337C14.482 18.6178 13.522 18.1762 11.6037 17.2928L11.1062 17.0645C10.5612 16.8128 10.2887 16.6878 9.99954 16.6878C9.71038 16.6878 9.43788 16.8128 8.89288 17.0645L8.39621 17.2928C6.47704 18.1762 5.51704 18.6178 4.87954 18.1345C4.24038 17.6495 4.34621 16.5595 4.55704 14.3787L4.61204 13.8153C4.67204 13.1953 4.70204 12.8853 4.61204 12.5987C4.52371 12.3112 4.32454 12.0787 3.92788 11.6153L3.56621 11.192C2.16871 9.55866 1.47038 8.74116 1.71371 7.95699C1.95704 7.17283 2.98288 6.94033 5.03288 6.47699L5.56288 6.35699C6.14538 6.22533 6.43621 6.15949 6.67038 5.98199C6.90454 5.80449 7.05371 5.53533 7.35371 4.99699L7.62704 4.50699Z" stroke="#333333" stroke-width="1.2"/>
</svg>
