<svg width="30" height="30" viewBox="0 0 30 30" fill="none" xmlns="http://www.w3.org/2000/svg">
<path d="M9.5 11.45V3.35C9.5 2.9675 9.628 2.6471 9.884 2.3888C10.14 2.1305 10.4564 2.0009 10.8333 2C11.2102 1.9991 11.5271 2.1287 11.784 2.3888C12.0409 2.6489 12.1684 2.9693 12.1667 3.35V11.45H13.5V3.35C13.5 2.9675 13.628 2.6471 13.884 2.3888C14.14 2.1305 14.4564 2.0009 14.8333 2C15.2102 1.9991 15.5271 2.1287 15.784 2.3888C16.0409 2.6489 16.1684 2.9693 16.1667 3.35V11.45C16.1667 12.71 15.7836 13.8125 15.0173 14.7575C14.2511 15.7025 13.3009 16.3325 12.1667 16.6475V27.65C12.1667 28.0325 12.0387 28.3533 11.7827 28.6125C11.5267 28.8717 11.2102 29.0009 10.8333 29C10.4564 28.9991 10.14 28.8695 9.884 28.6112C9.628 28.3529 9.5 28.0325 9.5 27.65V16.6475C8.36667 16.3325 7.41689 15.7025 6.65067 14.7575C5.88444 13.8125 5.50089 12.71 5.5 11.45V3.35C5.5 2.9675 5.628 2.6471 5.884 2.3888C6.14 2.1305 6.45644 2.0009 6.83333 2C7.21022 1.9991 7.52711 2.1287 7.784 2.3888C8.04089 2.6489 8.16844 2.9693 8.16667 3.35V11.45H9.5ZM22.8333 18.2H20.1667C19.7889 18.2 19.4724 18.0704 19.2173 17.8112C18.9622 17.552 18.8342 17.2316 18.8333 16.85V8.75C18.8333 7.175 19.4058 5.65625 20.5507 4.19375C21.6956 2.73125 22.8787 2 24.1 2C24.5 2 24.8333 2.1575 25.1 2.4725C25.3667 2.7875 25.5 3.15875 25.5 3.58625V27.65C25.5 28.0325 25.372 28.3533 25.116 28.6125C24.86 28.8717 24.5436 29.0009 24.1667 29C23.7898 28.9991 23.4733 28.8695 23.2173 28.6112C22.9613 28.3529 22.8333 28.0325 22.8333 27.65V18.2Z" fill="#FFAAAA"/>
</svg>
