<svg width="30" height="30" viewBox="0 0 30 30" fill="none" xmlns="http://www.w3.org/2000/svg">
<path fill-rule="evenodd" clip-rule="evenodd" d="M15.0976 7.18502C14.1898 7.18502 13.2909 7.36381 12.4523 7.7112C11.6136 8.0586 10.8516 8.56777 10.2097 9.20967C9.56777 9.85156 9.0586 10.6136 8.7112 11.4523C8.36381 12.2909 8.18502 13.1898 8.18502 14.0976C8.18502 15.0054 8.36381 15.9043 8.7112 16.7429C9.0586 17.5816 9.56777 18.3437 10.2097 18.9855C10.8516 19.6274 11.6136 20.1366 12.4523 20.484C13.2909 20.8314 14.1898 21.0102 15.0976 21.0102C16.9309 21.0102 18.6892 20.2819 19.9855 18.9855C21.2819 17.6892 22.0102 15.9309 22.0102 14.0976C22.0102 12.2643 21.2819 10.506 19.9855 9.20967C18.6892 7.9133 16.9309 7.18502 15.0976 7.18502ZM7 14.0976C7 9.62615 10.6261 6 15.0976 6C19.5691 6 23.1952 9.62615 23.1952 14.0976C23.1952 16.12 22.4534 17.9702 21.2273 19.3891L23.8114 21.974C23.8696 22.0283 23.9163 22.0937 23.9487 22.1663C23.9811 22.239 23.9985 22.3175 23.9999 22.397C24.0013 22.4766 23.9867 22.5556 23.9569 22.6294C23.9271 22.7032 23.8827 22.7702 23.8265 22.8265C23.7702 22.8827 23.7032 22.9271 23.6294 22.9569C23.5556 22.9867 23.4766 23.0013 23.397 22.9999C23.3175 22.9985 23.239 22.9811 23.1663 22.9487C23.0937 22.9163 23.0283 22.8696 22.974 22.8114L20.3891 20.2273C18.9203 21.4999 17.041 22.1988 15.0976 22.1952C10.6261 22.1952 7 18.5691 7 14.0976Z" fill="#333333"/>
</svg>
