<svg width="10" height="10" viewBox="0 0 10 10" fill="none" xmlns="http://www.w3.org/2000/svg">
<path fill-rule="evenodd" clip-rule="evenodd" d="M4.97514 0.520874H5.02681C5.86598 0.520874 6.52806 0.520874 7.01014 0.584624C7.48473 0.647124 7.91056 0.784624 8.11264 1.17754C8.14209 1.23421 8.16667 1.29282 8.18639 1.35337C8.32431 1.77421 8.12014 2.17254 7.82931 2.54921C7.53348 2.93212 7.06514 3.39587 6.47181 3.98337L5.44514 5.00004L6.47181 6.01671C7.06514 6.60421 7.53348 7.06796 7.82931 7.45087C8.12014 7.82754 8.32431 8.22587 8.18639 8.64671C8.16632 8.70711 8.14167 8.76589 8.11264 8.82254C7.91056 9.21546 7.48473 9.35296 7.01056 9.41546C6.52806 9.47921 5.86598 9.47921 5.02723 9.47921H4.97514C4.13598 9.47921 3.47389 9.47921 2.99139 9.41546C2.51723 9.35296 2.09139 9.21546 1.88889 8.82254C1.86001 8.76588 1.83549 8.7071 1.81556 8.64671C1.67764 8.22587 1.88181 7.82754 2.17264 7.45087C2.46848 7.06796 2.93681 6.60421 3.53014 6.01671L4.55681 5.00004L3.53014 3.98337C2.93681 3.39587 2.46848 2.93212 2.17264 2.54921C1.88181 2.17254 1.67764 1.77421 1.81556 1.35337C1.83556 1.29282 1.86 1.23421 1.88889 1.17754C2.09139 0.784624 2.51723 0.647124 2.99139 0.584624C3.47389 0.520874 4.13639 0.520874 4.97514 0.520874ZM5.00098 4.56046L6.01348 3.55754C6.62931 2.94796 7.06764 2.51296 7.33431 2.16712C7.61014 1.81046 7.62473 1.64712 7.59264 1.54796C7.58305 1.51902 7.57121 1.49088 7.55723 1.46379C7.50848 1.36921 7.37848 1.26337 6.92889 1.20421C6.49223 1.14671 5.87181 1.14587 5.00098 1.14587C4.13014 1.14587 3.50931 1.14671 3.07306 1.20421C2.62306 1.26337 2.49348 1.36921 2.44473 1.46379C2.43074 1.49088 2.4189 1.51902 2.40931 1.54796C2.37723 1.64712 2.39181 1.81046 2.66764 2.16712C2.93431 2.51296 3.37264 2.94796 3.98848 3.55754L5.00098 4.56046ZM5.00098 5.43962L3.98848 6.44254C3.37264 7.05212 2.93431 7.48712 2.66764 7.83296C2.39181 8.18962 2.37723 8.35337 2.40931 8.45212C2.41875 8.48129 2.43056 8.50935 2.44473 8.53629C2.49348 8.63087 2.62348 8.73671 3.07306 8.79587C3.50973 8.85337 4.13014 8.85421 5.00098 8.85421C5.87181 8.85421 6.49264 8.85337 6.92889 8.79587C7.37889 8.73671 7.50848 8.63087 7.55723 8.53629C7.57111 8.50935 7.58292 8.48129 7.59264 8.45212C7.62473 8.35296 7.61014 8.18962 7.33431 7.83296C7.06764 7.48712 6.62931 7.05212 6.01348 6.44254L5.00098 5.43962ZM3.85514 2.29171C3.85514 2.20883 3.88807 2.12934 3.94667 2.07074C4.00528 2.01213 4.08476 1.97921 4.16764 1.97921H5.83431C5.91719 1.97921 5.99667 2.01213 6.05528 2.07074C6.11388 2.12934 6.14681 2.20883 6.14681 2.29171C6.14681 2.37459 6.11388 2.45407 6.05528 2.51268C5.99667 2.57128 5.91719 2.60421 5.83431 2.60421H4.16764C4.08476 2.60421 4.00528 2.57128 3.94667 2.51268C3.88807 2.45407 3.85514 2.37459 3.85514 2.29171ZM3.85514 7.70837C3.85514 7.62549 3.88807 7.54601 3.94667 7.4874C4.00528 7.4288 4.08476 7.39587 4.16764 7.39587H5.83431C5.91719 7.39587 5.99667 7.4288 6.05528 7.4874C6.11388 7.54601 6.14681 7.62549 6.14681 7.70837C6.14681 7.79125 6.11388 7.87074 6.05528 7.92934C5.99667 7.98795 5.91719 8.02087 5.83431 8.02087H4.16764C4.08476 8.02087 4.00528 7.98795 3.94667 7.92934C3.88807 7.87074 3.85514 7.79125 3.85514 7.70837Z" fill="white"/>
</svg>
