<svg width="30" height="30" viewBox="0 0 30 30" fill="none" xmlns="http://www.w3.org/2000/svg">
<path d="M25.8 3H6.9C5.415 3 4.2 4.2 4.2 5.66667V16.3333C4.2 19.28 6.6165 21.6667 9.6 21.6667H17.7C20.6835 21.6667 23.1 19.28 23.1 16.3333V12.3333H25.8C27.285 12.3333 28.5 11.1333 28.5 9.66667V5.66667C28.5 4.2 27.285 3 25.8 3ZM25.8 9.66667H23.1V5.66667H25.8V9.66667ZM2.85 27H24.45C25.1925 27 25.8 26.4 25.8 25.6667C25.8 24.9333 25.1925 24.3333 24.45 24.3333H2.85C2.1075 24.3333 1.5 24.9333 1.5 25.6667C1.5 26.4 2.1075 27 2.85 27Z" fill="#FFAAAA"/>
</svg>
