<svg width="20" height="20" viewBox="0 0 20 20" fill="none" xmlns="http://www.w3.org/2000/svg">
<path fill-rule="evenodd" clip-rule="evenodd" d="M8.28249 2.70837H11.7175C13.2533 2.70837 14.4692 2.70837 15.4208 2.83587C16.3992 2.96754 17.1917 3.24421 17.8167 3.86754C18.675 4.72337 18.8833 5.90087 18.9492 7.46504V7.48504C18.9558 7.62171 18.9617 7.76087 18.9558 7.87837C18.9526 8.04695 18.9101 8.21245 18.8317 8.36171C18.7742 8.46165 18.6985 8.54985 18.6083 8.62171C18.5404 8.67534 18.4698 8.7254 18.3967 8.77171C18.2608 8.85754 18.0758 8.96087 17.86 9.08171L17.8433 9.09004C17.681 9.18016 17.5457 9.31207 17.4515 9.47207C17.3574 9.63208 17.3077 9.81437 17.3077 10C17.3077 10.1857 17.3574 10.368 17.4515 10.528C17.5457 10.688 17.681 10.8199 17.8433 10.91L17.86 10.9184C18.0767 11.0392 18.26 11.1425 18.3967 11.2284C18.4675 11.2734 18.5417 11.3234 18.6083 11.3784C18.67 11.4292 18.7625 11.515 18.8317 11.6384C18.9317 11.8167 18.9508 11.9967 18.9567 12.1217C18.9617 12.2384 18.9558 12.3784 18.95 12.515L18.9492 12.535C18.8825 14.0984 18.6742 15.2767 17.8167 16.1325C17.1917 16.7559 16.4 17.0325 15.4208 17.1642C14.4692 17.2917 13.2533 17.2917 11.7175 17.2917H8.28332C6.74749 17.2917 5.53165 17.2917 4.57999 17.1642C3.60082 17.0325 2.80915 16.7559 2.18415 16.1325C1.32582 15.2767 1.11749 14.0992 1.05165 12.535V12.515C1.04399 12.3841 1.04149 12.2529 1.04415 12.1217C1.04999 11.9967 1.06915 11.8167 1.16915 11.6384C1.22659 11.5384 1.30236 11.4502 1.39249 11.3784C1.4604 11.3247 1.53105 11.2747 1.60415 11.2284C1.73999 11.1425 1.92499 11.0392 2.14082 10.9184L2.15749 10.91C2.31982 10.8199 2.45508 10.688 2.54927 10.528C2.64345 10.368 2.69311 10.1857 2.69311 10C2.69311 9.81437 2.64345 9.63208 2.54927 9.47207C2.45508 9.31207 2.31982 9.18016 2.15749 9.09004L2.14082 9.08171C1.92415 8.96087 1.74082 8.85754 1.60415 8.77171C1.53043 8.72634 1.45972 8.67624 1.39249 8.62171C1.30236 8.54985 1.22659 8.46165 1.16915 8.36171C1.09043 8.21253 1.04762 8.04702 1.04415 7.87837C1.04123 7.74054 1.04401 7.60264 1.05249 7.46504C1.11749 5.90171 1.32582 4.72337 2.18415 3.86754C2.80915 3.24421 3.60082 2.96754 4.57999 2.83587C5.53082 2.70837 6.74582 2.70837 8.28249 2.70837ZM17.7083 12.2717V12.2884L17.7008 12.4825C17.6358 14.0292 17.425 14.7592 16.9342 15.2475C16.5808 15.6009 16.0958 15.8125 15.255 15.925C14.3967 16.04 13.2642 16.0417 11.6717 16.0417H8.32999C6.73749 16.0417 5.60499 16.04 4.74665 15.925C3.90499 15.8125 3.42082 15.6009 3.06665 15.2475C2.57665 14.7592 2.36582 14.0292 2.29999 12.4825L2.29332 12.2717C2.39665 12.2075 2.54582 12.1242 2.76665 12.0009C3.12295 11.8022 3.41973 11.512 3.62634 11.1603C3.83295 10.8085 3.94188 10.408 3.94188 10C3.94188 9.5921 3.83295 9.19156 3.62634 8.83982C3.41973 8.48807 3.12295 8.19787 2.76665 7.99921C2.60715 7.91197 2.44934 7.82168 2.29332 7.72837V7.71171L2.30082 7.51754C2.36582 5.97087 2.57665 5.24087 3.06749 4.75254C3.42082 4.39921 3.90499 4.18754 4.74665 4.07504C5.60499 3.96004 6.73749 3.95837 8.32999 3.95837H11.6717C13.2642 3.95837 14.3967 3.96004 15.255 4.07504C16.0967 4.18754 16.5808 4.39921 16.935 4.75254C17.4242 5.24087 17.6358 5.97087 17.7008 7.51754L17.7083 7.71171V7.72837C17.605 7.79254 17.4558 7.87587 17.235 7.99921C16.8785 8.19769 16.5815 8.48782 16.3747 8.83959C16.1679 9.19137 16.0589 9.592 16.0589 10C16.0589 10.4081 16.1679 10.8087 16.3747 11.1605C16.5815 11.5123 16.8785 11.8024 17.235 12.0009C17.455 12.1242 17.605 12.2075 17.7083 12.2717ZM12.9417 7.05837C13.0587 7.17556 13.1244 7.33441 13.1244 7.50004C13.1244 7.66567 13.0587 7.82452 12.9417 7.94171L7.94165 12.9417C7.82317 13.0521 7.66647 13.1122 7.50455 13.1094C7.34263 13.1065 7.18815 13.0409 7.07364 12.9264C6.95912 12.8119 6.89353 12.6574 6.89067 12.4955C6.88782 12.3336 6.94792 12.1769 7.05832 12.0584L12.0583 7.05837C12.1755 6.94133 12.3344 6.87559 12.5 6.87559C12.6656 6.87559 12.8245 6.94133 12.9417 7.05837Z" fill="url(#paint0_linear_1985_8312)"/>
<path d="M12.9154 12.0834C12.9154 12.3044 12.8276 12.5163 12.6713 12.6726C12.515 12.8289 12.303 12.9167 12.082 12.9167C11.861 12.9167 11.6491 12.8289 11.4928 12.6726C11.3365 12.5163 11.2487 12.3044 11.2487 12.0834C11.2487 11.8624 11.3365 11.6504 11.4928 11.4941C11.6491 11.3378 11.861 11.25 12.082 11.25C12.303 11.25 12.515 11.3378 12.6713 11.4941C12.8276 11.6504 12.9154 11.8624 12.9154 12.0834ZM8.7487 7.91671C8.7487 8.13772 8.6609 8.34968 8.50462 8.50596C8.34834 8.66224 8.13638 8.75004 7.91536 8.75004C7.69435 8.75004 7.48239 8.66224 7.32611 8.50596C7.16983 8.34968 7.08203 8.13772 7.08203 7.91671C7.08203 7.69569 7.16983 7.48373 7.32611 7.32745C7.48239 7.17117 7.69435 7.08337 7.91536 7.08337C8.13638 7.08337 8.34834 7.17117 8.50462 7.32745C8.6609 7.48373 8.7487 7.69569 8.7487 7.91671Z" fill="url(#paint1_linear_1985_8312)"/>
<defs>
<linearGradient id="paint0_linear_1985_8312" x1="10.0008" y1="2.70837" x2="10.0008" y2="17.2917" gradientUnits="userSpaceOnUse">
<stop stop-color="#FF488E"/>
<stop offset="1" stop-color="#FFA2C2"/>
</linearGradient>
<linearGradient id="paint1_linear_1985_8312" x1="9.9987" y1="7.08337" x2="9.9987" y2="12.9167" gradientUnits="userSpaceOnUse">
<stop stop-color="#FF488E"/>
<stop offset="1" stop-color="#FFA2C2"/>
</linearGradient>
</defs>
</svg>
