<svg width="30" height="30" viewBox="0 0 30 30" fill="none" xmlns="http://www.w3.org/2000/svg">
<path d="M23.3725 20.5009C23.7193 20.5009 24 20.8362 24 21.2504C24 21.6647 23.7193 22 23.3725 22H6.62753C6.28073 22 6 21.6647 6 21.2504C6 20.8362 6.28073 20.5009 6.62753 20.5009H23.3725ZM23.3725 14.2504C23.7193 14.2504 24 14.5858 24 15C24 15.4142 23.7193 15.7496 23.3725 15.7496H6.62753C6.28073 15.7496 6 15.4142 6 15C6 14.5858 6.28073 14.2504 6.62753 14.2504H23.3725ZM23.3725 8C23.7193 8 24 8.33532 24 8.74956C24 9.16381 23.7193 9.49913 23.3725 9.49913H6.62753C6.28073 9.49913 6 9.16381 6 8.74956C6 8.33532 6.28073 8 6.62753 8H23.3725Z" fill="#333333"/>
<circle cx="25.5" cy="4.5" r="2.5" fill="#FF488E"/>
</svg>
