<svg width="24" height="24" viewBox="0 0 24 24" fill="none" xmlns="http://www.w3.org/2000/svg">
<g clip-path="url(#clip0_38_329)">
<path d="M12 23.5C18.3514 23.5 23.5 21.1839 23.5 18.325C23.5 16.8691 22.1625 15.5535 20.0098 14.6116C18.6964 17.022 16.6943 19.1001 14.1505 20.1868C13.4704 20.4759 12.739 20.6249 12 20.6249C11.261 20.6249 10.5296 20.4759 9.8495 20.1868C7.3057 19.1001 5.30355 17.022 3.99025 14.6128C1.83745 15.5523 0.5 16.8691 0.5 18.325C0.5 21.1839 5.64855 23.5 12 23.5Z" fill="#FF488E"/>
<path d="M11.9998 0.5C16.4456 0.5 20.0495 3.85452 20.0496 7.99219C20.0496 12.0975 17.481 16.8869 13.4724 18.6006C13.0068 18.798 12.5055 18.9004 11.9998 18.9004C11.4941 18.9004 10.9937 18.7979 10.5281 18.6006C6.5192 16.8871 3.94995 12.0965 3.94995 7.99219C3.94999 3.85458 7.55397 0.500098 11.9998 0.5ZM15.45 7.12109C15.45 5.1284 13.5522 4.38362 11.9998 5.92285C10.4473 4.38401 8.55054 5.12853 8.55054 7.12109C8.55072 8.29392 9.89013 9.53266 10.8992 10.2998C11.382 10.6669 11.6239 10.8495 11.9998 10.8496C12.3757 10.8496 12.6175 10.6669 13.1003 10.2998C14.1103 9.53267 15.4498 8.29398 15.45 7.12109Z" fill="#FF488E"/>
</g>
<defs>
<clipPath id="clip0_38_329">
<rect width="24" height="24" fill="white"/>
</clipPath>
</defs>
</svg>
