<svg width="30" height="30" viewBox="0 0 30 30" fill="none" xmlns="http://www.w3.org/2000/svg">
<path d="M9.08428 8.02104L12.8596 3.06053C13.1292 2.69562 13.4497 2.42787 13.8209 2.25727C14.1921 2.08667 14.5796 2.00092 14.9832 2.00001C15.3867 1.99909 15.7746 2.08485 16.1467 2.25727C16.5189 2.42969 16.8389 2.69744 17.1067 3.06053L20.882 8.02104L26.6124 9.97103C27.1966 10.1535 27.6573 10.4901 27.9944 10.9809C28.3315 11.4717 28.5 12.0132 28.5 12.6052C28.5 12.8789 28.4604 13.1526 28.3813 13.4263C28.3022 13.7 28.1733 13.9622 27.9944 14.2131L24.2865 19.5499L24.4214 25.1604C24.4438 25.9587 24.1854 26.6315 23.6461 27.1789C23.1067 27.7262 22.4775 27.9999 21.7584 27.9999C21.7135 27.9999 21.4663 27.9657 21.0169 27.8973L14.9832 26.1868L8.94945 27.8973C8.83709 27.9429 8.71349 27.9716 8.57866 27.9835C8.44383 27.9953 8.32024 28.0008 8.20788 27.9999C7.48878 27.9999 6.85956 27.7262 6.32024 27.1789C5.78091 26.6315 5.52248 25.9587 5.54496 25.1604L5.67979 19.5157L2.00563 14.2131C1.82586 13.9622 1.69642 13.7 1.61732 13.4263C1.53822 13.1526 1.49912 12.8789 1.50002 12.6052C1.50002 12.0351 1.66316 11.505 1.98945 11.0151C2.31574 10.5252 2.77058 10.1772 3.35395 9.97103L9.08428 8.02104Z" fill="#FFAAAA"/>
</svg>
