<svg width="24" height="24" viewBox="0 0 24 24" fill="none" xmlns="http://www.w3.org/2000/svg">
<g clip-path="url(#clip0_2035_2087)">
<path fill-rule="evenodd" clip-rule="evenodd" d="M5.67916 4.01992C3.90442 4.82986 2.60465 6.75748 2.60465 9.05588C2.60465 11.4034 3.56744 13.2135 4.9453 14.765C6.08247 16.043 7.45819 17.1029 8.79967 18.1351C9.11918 18.3809 9.43476 18.626 9.74642 18.8703C10.3091 19.3137 10.8108 19.7016 11.2954 19.9848C11.78 20.2679 12.1684 20.3961 12.5 20.3961C12.8316 20.3961 13.221 20.2679 13.7046 19.9848C14.1892 19.7016 14.6909 19.3137 15.2536 18.8703C15.5652 18.6252 15.8808 18.3805 16.2003 18.1362C17.5418 17.1019 18.9175 16.043 20.0547 14.765C21.4336 13.2135 22.3953 11.4034 22.3953 9.05588C22.3953 6.75855 21.0956 4.82986 19.3208 4.01992C17.5964 3.23241 15.2793 3.44078 13.0777 5.72635C13.0028 5.80391 12.9131 5.86561 12.8138 5.90774C12.7146 5.94988 12.6078 5.9716 12.5 5.9716C12.3922 5.9716 12.2854 5.94988 12.1862 5.90774C12.0869 5.86561 11.9972 5.80391 11.9223 5.72635C9.72074 3.44078 7.40363 3.23241 5.67916 4.01992ZM12.5 4.05838C10.0267 1.84654 7.25707 1.53666 5.01163 2.56138C2.64316 3.64593 1 6.15911 1 9.05695C1 11.9046 2.18744 14.078 3.74609 15.8303C4.99344 17.2333 6.52 18.4076 7.86898 19.4441C8.17564 19.6792 8.47019 19.9078 8.7526 20.1301C9.3014 20.5618 9.88977 21.0212 10.4856 21.3696C11.0815 21.7179 11.7619 22 12.5 22C13.2381 22 13.9185 21.7168 14.5144 21.3696C15.1113 21.0212 15.6986 20.5618 16.2474 20.1301C16.5298 19.9078 16.8244 19.6792 17.131 19.4441C18.4789 18.4076 20.0066 17.2322 21.2539 15.8303C22.8126 14.078 24 11.9046 24 9.05695C24 6.15911 22.3579 3.64593 19.9884 2.56352C17.7429 1.53773 14.9733 1.8476 12.5 4.05838Z" fill="#FFA2C2"/>
</g>
<defs>
<clipPath id="clip0_2035_2087">
<rect width="24" height="24" fill="white"/>
</clipPath>
</defs>
</svg>
