<svg width="24" height="24" viewBox="0 0 24 24" fill="none" xmlns="http://www.w3.org/2000/svg">
<g clip-path="url(#clip0_38_324)">
<path d="M23.5 14.4136V12.142C23.5 11.189 23.5 10.3417 23.485 9.58642H0.51495C0.5 10.3417 0.5 11.189 0.5 12.142V14.4136C0.5 18.6967 0.5 20.8388 1.8478 22.1688C3.1956 23.4989 5.36335 23.5 9.7 23.5H14.3C18.6367 23.5 20.8055 23.5 22.1522 22.1688C23.4988 20.8377 23.5 18.6967 23.5 14.4136ZM7.1125 1.35185C7.1125 1.12593 7.02163 0.909255 6.85988 0.749502C6.69813 0.589748 6.47875 0.5 6.25 0.5C6.02125 0.5 5.80187 0.589748 5.64012 0.749502C5.47837 0.909255 5.3875 1.12593 5.3875 1.35185V3.14642C3.7315 3.27704 2.6459 3.59733 1.8478 4.38672C1.04855 5.17496 0.72425 6.2483 0.59085 7.88272H23.4091C23.2757 6.24716 22.9514 5.17496 22.1522 4.38672C21.3541 3.59733 20.2673 3.27704 18.6125 3.14528V1.35185C18.6125 1.12593 18.5216 0.909255 18.3599 0.749502C18.1981 0.589748 17.9787 0.5 17.75 0.5C17.5212 0.5 17.3019 0.589748 17.1401 0.749502C16.9784 0.909255 16.8875 1.12593 16.8875 1.35185V3.07032C16.1227 3.05556 15.2648 3.05556 14.3 3.05556H9.7C8.73515 3.05556 7.87725 3.05556 7.1125 3.07032V1.35185Z" fill="#FF488E"/>
</g>
<defs>
<clipPath id="clip0_38_324">
<rect width="24" height="24" fill="white"/>
</clipPath>
</defs>
</svg>
