<svg width="20" height="20" viewBox="0 0 20 20" fill="none" xmlns="http://www.w3.org/2000/svg">
<path d="M6.45825 2.08337C6.45825 1.91761 6.39241 1.75864 6.2752 1.64143C6.15799 1.52422 5.99902 1.45837 5.83325 1.45837C5.66749 1.45837 5.50852 1.52422 5.39131 1.64143C5.2741 1.75864 5.20825 1.91761 5.20825 2.08337V3.40004C4.00825 3.49587 3.22159 3.73087 2.64326 4.31004C2.06409 4.88837 1.82909 5.67587 1.73242 6.87504H18.2674C18.1708 5.67504 17.9358 4.88837 17.3566 4.31004C16.7783 3.73087 15.9908 3.49587 14.7916 3.39921V2.08337C14.7916 1.91761 14.7257 1.75864 14.6085 1.64143C14.4913 1.52422 14.3323 1.45837 14.1666 1.45837C14.0008 1.45837 13.8419 1.52422 13.7246 1.64143C13.6074 1.75864 13.5416 1.91761 13.5416 2.08337V3.34421C12.9874 3.33337 12.3658 3.33337 11.6666 3.33337H8.33325C7.63409 3.33337 7.01242 3.33337 6.45825 3.34421V2.08337Z" fill="#FFAAAA"/>
<path fill-rule="evenodd" clip-rule="evenodd" d="M1.66797 10C1.66797 9.30083 1.66797 8.67917 1.6788 8.125H18.3238C18.3346 8.67917 18.3346 9.30083 18.3346 10V11.6667C18.3346 14.8092 18.3346 16.3808 17.358 17.3567C16.3813 18.3325 14.8105 18.3333 11.668 18.3333H8.33464C5.19214 18.3333 3.62047 18.3333 2.64464 17.3567C1.6688 16.38 1.66797 14.8092 1.66797 11.6667V10ZM14.168 11.6667C14.389 11.6667 14.6009 11.5789 14.7572 11.4226C14.9135 11.2663 15.0013 11.0543 15.0013 10.8333C15.0013 10.6123 14.9135 10.4004 14.7572 10.2441C14.6009 10.0878 14.389 10 14.168 10C13.947 10 13.735 10.0878 13.5787 10.2441C13.4224 10.4004 13.3346 10.6123 13.3346 10.8333C13.3346 11.0543 13.4224 11.2663 13.5787 11.4226C13.735 11.5789 13.947 11.6667 14.168 11.6667ZM14.168 15C14.389 15 14.6009 14.9122 14.7572 14.7559C14.9135 14.5996 15.0013 14.3877 15.0013 14.1667C15.0013 13.9457 14.9135 13.7337 14.7572 13.5774C14.6009 13.4211 14.389 13.3333 14.168 13.3333C13.947 13.3333 13.735 13.4211 13.5787 13.5774C13.4224 13.7337 13.3346 13.9457 13.3346 14.1667C13.3346 14.3877 13.4224 14.5996 13.5787 14.7559C13.735 14.9122 13.947 15 14.168 15ZM10.8346 10.8333C10.8346 11.0543 10.7468 11.2663 10.5906 11.4226C10.4343 11.5789 10.2223 11.6667 10.0013 11.6667C9.78029 11.6667 9.56833 11.5789 9.41205 11.4226C9.25577 11.2663 9.16797 11.0543 9.16797 10.8333C9.16797 10.6123 9.25577 10.4004 9.41205 10.2441C9.56833 10.0878 9.78029 10 10.0013 10C10.2223 10 10.4343 10.0878 10.5906 10.2441C10.7468 10.4004 10.8346 10.6123 10.8346 10.8333ZM10.8346 14.1667C10.8346 14.3877 10.7468 14.5996 10.5906 14.7559C10.4343 14.9122 10.2223 15 10.0013 15C9.78029 15 9.56833 14.9122 9.41205 14.7559C9.25577 14.5996 9.16797 14.3877 9.16797 14.1667C9.16797 13.9457 9.25577 13.7337 9.41205 13.5774C9.56833 13.4211 9.78029 13.3333 10.0013 13.3333C10.2223 13.3333 10.4343 13.4211 10.5906 13.5774C10.7468 13.7337 10.8346 13.9457 10.8346 14.1667ZM5.83464 11.6667C6.05565 11.6667 6.26761 11.5789 6.42389 11.4226C6.58017 11.2663 6.66797 11.0543 6.66797 10.8333C6.66797 10.6123 6.58017 10.4004 6.42389 10.2441C6.26761 10.0878 6.05565 10 5.83464 10C5.61362 10 5.40166 10.0878 5.24538 10.2441C5.0891 10.4004 5.0013 10.6123 5.0013 10.8333C5.0013 11.0543 5.0891 11.2663 5.24538 11.4226C5.40166 11.5789 5.61362 11.6667 5.83464 11.6667ZM5.83464 15C6.05565 15 6.26761 14.9122 6.42389 14.7559C6.58017 14.5996 6.66797 14.3877 6.66797 14.1667C6.66797 13.9457 6.58017 13.7337 6.42389 13.5774C6.26761 13.4211 6.05565 13.3333 5.83464 13.3333C5.61362 13.3333 5.40166 13.4211 5.24538 13.5774C5.0891 13.7337 5.0013 13.9457 5.0013 14.1667C5.0013 14.3877 5.0891 14.5996 5.24538 14.7559C5.40166 14.9122 5.61362 15 5.83464 15Z" fill="#FFAAAA"/>
</svg>
