<svg width="22" height="22" viewBox="0 0 22 22" fill="none" xmlns="http://www.w3.org/2000/svg">
<path fill-rule="evenodd" clip-rule="evenodd" d="M10.9432 1.14575H11.0569C12.903 1.14575 14.3596 1.14575 15.4202 1.286C16.4643 1.4235 17.4011 1.726 17.8457 2.59042C17.9105 2.71509 17.9646 2.84403 18.0079 2.97725C18.3114 3.90309 17.8622 4.77942 17.2224 5.60809C16.5715 6.4505 15.5412 7.47075 14.2359 8.76325L11.9772 10.9999L14.2359 13.2366C15.5412 14.5291 16.5715 15.5493 17.2224 16.3918C17.8622 17.2204 18.3114 18.0968 18.0079 19.0226C17.9638 19.1555 17.9095 19.2848 17.8457 19.4094C17.4011 20.2738 16.4643 20.5763 15.4211 20.7138C14.3596 20.8541 12.903 20.8541 11.0578 20.8541H10.9432C9.09702 20.8541 7.64044 20.8541 6.57894 20.7138C5.53577 20.5763 4.59894 20.2738 4.15344 19.4094C4.0899 19.2848 4.03596 19.1554 3.99211 19.0226C3.68869 18.0968 4.13786 17.2204 4.77769 16.3918C5.42852 15.5493 6.45886 14.5291 7.76419 13.2366L10.0229 10.9999L7.76419 8.76325C6.45886 7.47075 5.42852 6.4505 4.77769 5.60809C4.13786 4.77942 3.68869 3.90309 3.99211 2.97725C4.03611 2.84403 4.08988 2.71509 4.15344 2.59042C4.59894 1.726 5.53577 1.4235 6.57894 1.286C7.64044 1.14575 9.09794 1.14575 10.9432 1.14575ZM11 10.0328L13.2275 7.82642C14.5824 6.48534 15.5467 5.52834 16.1334 4.7675C16.7402 3.98284 16.7723 3.6235 16.7017 3.40534C16.6806 3.34167 16.6545 3.27976 16.6238 3.22017C16.5165 3.01209 16.2305 2.77925 15.2414 2.64909C14.2808 2.52259 12.9159 2.52075 11 2.52075C9.08419 2.52075 7.71836 2.52259 6.75861 2.64909C5.76861 2.77925 5.48352 3.01209 5.37627 3.22017C5.3455 3.27976 5.31945 3.34167 5.29836 3.40534C5.22777 3.6235 5.25986 3.98284 5.86669 4.7675C6.45336 5.52834 7.41769 6.48534 8.77252 7.82642L11 10.0328ZM11 11.967L8.77252 14.1734C7.41769 15.5145 6.45336 16.4715 5.86669 17.2323C5.25986 18.017 5.22777 18.3773 5.29836 18.5945C5.31913 18.6587 5.3451 18.7204 5.37627 18.7797C5.48352 18.9878 5.76952 19.2206 6.75861 19.3508C7.71927 19.4773 9.08419 19.4791 11 19.4791C12.9159 19.4791 14.2817 19.4773 15.2414 19.3508C16.2314 19.2206 16.5165 18.9878 16.6238 18.7797C16.6543 18.7204 16.6803 18.6587 16.7017 18.5945C16.7723 18.3763 16.7402 18.017 16.1334 17.2323C15.5467 16.4715 14.5824 15.5145 13.2275 14.1734L11 11.967ZM8.47919 5.04159C8.47919 4.85925 8.55162 4.68438 8.68055 4.55545C8.80948 4.42652 8.98435 4.35409 9.16669 4.35409H12.8334C13.0157 4.35409 13.1906 4.42652 13.3195 4.55545C13.4484 4.68438 13.5209 4.85925 13.5209 5.04159C13.5209 5.22392 13.4484 5.39879 13.3195 5.52772C13.1906 5.65665 13.0157 5.72909 12.8334 5.72909H9.16669C8.98435 5.72909 8.80948 5.65665 8.68055 5.52772C8.55162 5.39879 8.47919 5.22392 8.47919 5.04159ZM8.47919 16.9583C8.47919 16.7759 8.55162 16.601 8.68055 16.4721C8.80948 16.3432 8.98435 16.2708 9.16669 16.2708H12.8334C13.0157 16.2708 13.1906 16.3432 13.3195 16.4721C13.4484 16.601 13.5209 16.7759 13.5209 16.9583C13.5209 17.1406 13.4484 17.3155 13.3195 17.4444C13.1906 17.5733 13.0157 17.6458 12.8334 17.6458H9.16669C8.98435 17.6458 8.80948 17.5733 8.68055 17.4444C8.55162 17.3155 8.47919 17.1406 8.47919 16.9583Z" fill="url(#paint0_linear_2582_6265)"/>
<defs>
<linearGradient id="paint0_linear_2582_6265" x1="11" y1="1.14575" x2="11" y2="20.8541" gradientUnits="userSpaceOnUse">
<stop stop-color="#FF488E"/>
<stop offset="1" stop-color="#FFA2C2"/>
</linearGradient>
</defs>
</svg>
