<svg width="30" height="30" viewBox="0 0 30 30" fill="none" xmlns="http://www.w3.org/2000/svg">
<circle cx="21.5" cy="5.5" r="2.5" fill="#FF488E"/>
<path fill-rule="evenodd" clip-rule="evenodd" d="M14.4996 7C12.7671 7 11.1056 7.68359 9.88057 8.9004C8.65553 10.1172 7.96731 11.7675 7.96731 13.4884V14.0778C7.96726 14.6612 7.79335 15.2316 7.46748 15.717L6.50071 17.1595C5.37631 18.834 6.23436 21.1095 8.18898 21.6386C8.82563 21.8111 9.46734 21.957 10.1141 22.0765L10.1158 22.0807C10.7631 23.7986 12.4952 25 14.4996 25C16.5039 25 18.236 23.7986 18.8842 22.0807L18.8859 22.0765C19.5333 21.9563 20.1755 21.8103 20.811 21.6386C22.7656 21.1095 23.6237 18.834 22.4993 17.1595L21.5317 15.717C21.2058 15.2316 21.0319 14.6612 21.0319 14.0778V13.4884C21.0319 11.7675 20.3436 10.1172 19.1186 8.9004C17.8936 7.68359 16.232 7 14.4996 7ZM17.3451 22.31C15.4545 22.5341 13.5438 22.5341 11.6532 22.31C12.2525 23.1648 13.2951 23.7442 14.4996 23.7442C15.704 23.7442 16.7458 23.1648 17.3451 22.31ZM9.23162 13.4884C9.23162 12.1006 9.78663 10.7697 10.7746 9.78839C11.7625 8.8071 13.1024 8.25581 14.4996 8.25581C15.8967 8.25581 17.2367 8.8071 18.2246 9.78839C19.2125 10.7697 19.7675 12.1006 19.7675 13.4884V14.0778C19.7675 14.9091 20.0153 15.722 20.4798 16.4136L21.4474 17.8561C21.5973 18.0791 21.6917 18.3344 21.7228 18.6008C21.7538 18.8672 21.7206 19.1371 21.6259 19.3883C21.5312 19.6395 21.3778 19.8646 21.1782 20.0453C20.9786 20.2259 20.7386 20.3568 20.4781 20.4272C16.5636 21.4875 12.4347 21.4875 8.52023 20.4272C8.25981 20.3568 8.01998 20.2259 7.8205 20.0453C7.62102 19.8647 7.46762 19.6396 7.37294 19.3886C7.27827 19.1376 7.24503 18.8678 7.27598 18.6014C7.30693 18.3351 7.40117 18.0799 7.55093 17.8569L8.52023 16.4136C8.98427 15.7218 9.23179 14.909 9.23162 14.0778V13.4884Z" fill="#333333"/>
</svg>
