<svg width="20" height="20" viewBox="0 0 20 20" fill="none" xmlns="http://www.w3.org/2000/svg">
<path d="M10.3682 3.65625C12.4926 1.34806 14.7617 1.11218 16.4717 1.92969C18.22 2.76564 19.5 4.75317 19.5 7.12012C19.5 11.9163 15.737 14.4664 12.7197 16.9512V16.9521C12.1963 17.3845 11.7135 17.7766 11.2441 18.0635C10.7739 18.3508 10.3674 18.5 10 18.5C9.63273 18.5 9.22622 18.3509 8.75586 18.0635C8.28637 17.7766 7.80388 17.3846 7.28027 16.9531C4.26373 14.4659 0.50007 11.9164 0.5 7.11914C0.5 4.75165 1.78005 2.76427 3.52832 1.92871C5.23828 1.11162 7.50736 1.34804 9.63184 3.65625L10 4.05566L10.3682 3.65625Z" fill="black" fill-opacity="0.5" stroke="white"/>
</svg>
