<svg width="30" height="30" viewBox="0 0 30 30" fill="none" xmlns="http://www.w3.org/2000/svg">
<path fill-rule="evenodd" clip-rule="evenodd" d="M15.495 12.186C14.6161 12.186 13.7732 12.5352 13.1517 13.1567C12.5302 13.7782 12.181 14.6211 12.181 15.5C12.181 16.3789 12.5302 17.2218 13.1517 17.8433C13.7732 18.4648 14.6161 18.8139 15.495 18.8139C16.3739 18.8139 17.2168 18.4648 17.8383 17.8433C18.4598 17.2218 18.8089 16.3789 18.8089 15.5C18.8089 14.6211 18.4598 13.7782 17.8383 13.1567C17.2168 12.5352 16.3739 12.186 15.495 12.186ZM13.5066 15.5C13.5066 14.9726 13.7161 14.4669 14.089 14.094C14.4619 13.7211 14.9676 13.5116 15.495 13.5116C16.0223 13.5116 16.5281 13.7211 16.901 14.094C17.2739 14.4669 17.4834 14.9726 17.4834 15.5C17.4834 16.0273 17.2739 16.5331 16.901 16.906C16.5281 17.2789 16.0223 17.4884 15.495 17.4884C14.9676 17.4884 14.4619 17.2789 14.089 16.906C13.7161 16.5331 13.5066 16.0273 13.5066 15.5Z" fill="#333333"/>
<path fill-rule="evenodd" clip-rule="evenodd" d="M15.4728 6C15.0796 6 14.7517 6 14.4831 6.01767C14.2084 6.02874 13.9375 6.08548 13.6815 6.18558C13.3866 6.30761 13.1186 6.48655 12.8928 6.71218C12.667 6.93781 12.4879 7.2057 12.3657 7.50056C12.2375 7.80986 12.2031 8.13684 12.1889 8.49209C12.1874 8.62198 12.1529 8.74936 12.0888 8.86232C12.0246 8.97529 11.9329 9.07017 11.8222 9.13809C11.708 9.20024 11.58 9.23243 11.45 9.23166C11.3201 9.23088 11.1924 9.19717 11.079 9.13367C10.7644 8.96753 10.4639 8.83409 10.1316 8.78991C9.81522 8.74829 9.4937 8.7694 9.18543 8.85204C8.87717 8.93467 8.58821 9.07722 8.33503 9.27154C8.12064 9.4434 7.93636 9.64977 7.78978 9.88219C7.63955 10.1067 7.47517 10.3903 7.27899 10.7306L7.25689 10.7694C7.05982 11.1097 6.89634 11.3933 6.77792 11.6355C6.6542 11.8882 6.55699 12.1374 6.52164 12.4132C6.43733 13.0521 6.61026 13.6983 7.00238 14.2098C7.20652 14.4758 7.47252 14.6693 7.77299 14.8584C7.8849 14.9248 7.97814 15.0184 8.04398 15.1306C8.10982 15.2429 8.14611 15.3699 8.14945 15.5C8.14611 15.6301 8.10982 15.7571 8.04398 15.8694C7.97814 15.9816 7.8849 16.0752 7.77299 16.1416C7.47252 16.3307 7.20741 16.5242 7.00238 16.7902C6.80807 17.0434 6.66552 17.3324 6.58288 17.6406C6.50025 17.9489 6.47913 18.2704 6.52075 18.5868C6.55699 18.8626 6.65331 19.1118 6.77703 19.3645C6.89634 19.6067 7.05982 19.8903 7.25689 20.2306L7.27899 20.2694C7.47517 20.6097 7.63955 20.8933 7.78978 21.1178C7.9462 21.3502 8.1141 21.5597 8.33503 21.7276C8.58814 21.9221 8.87708 22.0648 9.18534 22.1475C9.49361 22.2303 9.81516 22.2516 10.1316 22.2101C10.4639 22.1659 10.7644 22.0333 11.079 21.8663C11.1923 21.803 11.3198 21.7694 11.4496 21.7686C11.5794 21.7678 11.7073 21.7999 11.8213 21.8619C11.9329 21.929 12.0255 22.0236 12.09 22.1368C12.1545 22.2499 12.1889 22.3777 12.1898 22.5079C12.2031 22.8632 12.2375 23.1901 12.3666 23.4994C12.4886 23.7944 12.6675 24.0624 12.8932 24.2882C13.1188 24.514 13.3867 24.6931 13.6815 24.8153C13.9378 24.9213 14.2029 24.9629 14.4831 24.9814C14.7517 25 15.0796 25 15.4728 25H15.517C15.9103 25 16.2382 25 16.5068 24.9823C16.7878 24.9629 17.0521 24.9213 17.3083 24.8144C17.6033 24.6924 17.8713 24.5134 18.0971 24.2878C18.3228 24.0622 18.502 23.7943 18.6242 23.4994C18.7523 23.1901 18.7868 22.8632 18.8009 22.5079C18.8024 22.3779 18.8368 22.2503 18.9009 22.1372C18.965 22.024 19.0568 21.929 19.1677 21.861C19.2819 21.799 19.41 21.767 19.54 21.7679C19.6699 21.7688 19.7976 21.8027 19.9109 21.8663C20.2255 22.0325 20.526 22.1659 20.8582 22.2092C21.4972 22.2935 22.1434 22.1206 22.6548 21.7285C22.8758 21.5588 23.0437 21.3502 23.2001 21.1178C23.3503 20.8933 23.5147 20.6097 23.7109 20.2694L23.733 20.2306C23.9301 19.8903 24.0935 19.6067 24.212 19.3645C24.3357 19.1118 24.4329 18.8617 24.4682 18.5868C24.5525 17.9479 24.3796 17.3017 23.9875 16.7902C23.7834 16.5242 23.5174 16.3307 23.2169 16.1416C23.105 16.0752 23.0117 15.9816 22.9459 15.8694C22.8801 15.7571 22.8438 15.6301 22.8404 15.5C22.8404 15.2543 22.9748 15.0104 23.2169 14.8584C23.5174 14.6693 23.7825 14.4758 23.9875 14.2098C24.1818 13.9566 24.3244 13.6676 24.407 13.3594C24.4896 13.0511 24.5107 12.7296 24.4691 12.4132C24.4275 12.1415 24.3409 11.8787 24.2128 11.6355C24.0619 11.3419 23.9019 11.0531 23.733 10.7694L23.7109 10.7306C23.5495 10.4425 23.3791 10.1596 23.2001 9.88219C23.0534 9.65009 22.8692 9.44402 22.6548 9.27242C22.4017 9.07795 22.1128 8.93524 21.8045 8.85245C21.4963 8.76966 21.1747 8.74841 20.8582 8.78991C20.526 8.83409 20.2255 8.96665 19.9109 9.13367C19.7976 9.19701 19.6701 9.23064 19.5403 9.23141C19.4105 9.23218 19.2826 9.20008 19.1686 9.13809C19.0575 9.07038 18.9655 8.9756 18.901 8.86262C18.8366 8.74964 18.8018 8.62215 18.8001 8.49209C18.7868 8.13684 18.7523 7.80986 18.6233 7.50056C18.5013 7.20562 18.3223 6.9376 18.0967 6.71183C17.8711 6.48605 17.6032 6.30693 17.3083 6.1847C17.0521 6.07865 16.7869 6.03712 16.5068 6.01856C16.2382 6 15.9103 6 15.517 6H15.4728ZM14.1888 7.40953C14.2568 7.38126 14.3602 7.35563 14.5732 7.3406C14.7915 7.32558 15.0743 7.32558 15.4949 7.32558C15.9156 7.32558 16.1984 7.32558 16.4167 7.3406C16.6296 7.35563 16.733 7.38126 16.8011 7.40953C17.0724 7.52177 17.2871 7.73651 17.3994 8.00781C17.4347 8.09265 17.4639 8.22609 17.4754 8.54158C17.5019 9.24149 17.8633 9.91577 18.5049 10.286C19.1465 10.6563 19.9109 10.6325 20.5304 10.3055C20.8096 10.1579 20.9395 10.1164 21.0315 10.1049C21.3218 10.0665 21.6155 10.145 21.848 10.3232C21.9063 10.3682 21.9806 10.4451 22.0999 10.6219C22.2227 10.8039 22.3641 11.0487 22.5744 11.4128C22.7848 11.7769 22.9253 12.0226 23.0216 12.2187C23.1162 12.4105 23.1453 12.513 23.1542 12.5864C23.1925 12.8767 23.114 13.1704 22.9359 13.4029C22.8793 13.4763 22.7786 13.5682 22.5117 13.7361C21.9178 14.109 21.5148 14.7594 21.5148 15.5C21.5148 16.2406 21.9178 16.891 22.5117 17.2639C22.7786 17.4318 22.8793 17.5237 22.9359 17.5971C23.1144 17.8295 23.1922 18.1229 23.1542 18.4136C23.1453 18.487 23.1153 18.5904 23.0216 18.7813C22.9253 18.9783 22.7848 19.2231 22.5744 19.5872C22.3641 19.9513 22.2218 20.1961 22.0999 20.3781C21.9806 20.5549 21.9063 20.6318 21.848 20.6768C21.6155 20.855 21.3218 20.9335 21.0315 20.8951C20.9395 20.8836 20.8105 20.8421 20.5304 20.6945C19.9118 20.3675 19.1465 20.3428 18.5049 20.7131C17.8633 21.0833 17.5019 21.7585 17.4754 22.4584C17.4639 22.7739 17.4347 22.9073 17.3994 22.9922C17.3438 23.1263 17.2624 23.2482 17.1598 23.3509C17.0571 23.4535 16.9352 23.5349 16.8011 23.5905C16.733 23.6187 16.6296 23.6444 16.4167 23.6594C16.1984 23.6744 15.9156 23.6744 15.4949 23.6744C15.0743 23.6744 14.7915 23.6744 14.5732 23.6594C14.3602 23.6444 14.2568 23.6187 14.1888 23.5905C14.0547 23.5349 13.9328 23.4535 13.8301 23.3509C13.7275 23.2482 13.646 23.1263 13.5905 22.9922C13.5552 22.9073 13.526 22.7739 13.5145 22.4584C13.488 21.7585 13.1266 21.0842 12.485 20.714C11.8434 20.3437 11.079 20.3675 10.4595 20.6945C10.1802 20.8421 10.0503 20.8836 9.95843 20.8951C9.66807 20.9335 9.37436 20.855 9.14187 20.6768C9.08355 20.6318 9.00931 20.5549 8.89001 20.3781C8.72377 20.1194 8.56551 19.8556 8.41545 19.5872C8.20513 19.2231 8.06462 18.9774 7.96829 18.7813C7.87373 18.5895 7.84457 18.487 7.83573 18.4136C7.79736 18.1233 7.87588 17.8296 8.05401 17.5971C8.11057 17.5237 8.21131 17.4318 8.4782 17.2639C9.07206 16.891 9.47503 16.2406 9.47503 15.5C9.47503 14.7594 9.07206 14.109 8.4782 13.7361C8.21131 13.5682 8.11057 13.4763 8.05401 13.4029C7.87588 13.1704 7.79736 12.8767 7.83573 12.5864C7.84457 12.513 7.87462 12.4096 7.96829 12.2187C8.06462 12.0217 8.20513 11.7769 8.41545 11.4128C8.62578 11.0487 8.76806 10.8039 8.89001 10.6219C9.00931 10.4451 9.08355 10.3682 9.14187 10.3232C9.37436 10.145 9.66807 10.0665 9.95843 10.1049C10.0503 10.1164 10.1794 10.1579 10.4595 10.3055C11.0781 10.6325 11.8434 10.6572 12.485 10.286C13.1266 9.91577 13.488 9.24149 13.5145 8.54158C13.526 8.22609 13.5552 8.09265 13.5905 8.00781C13.7028 7.73651 13.9175 7.52177 14.1888 7.40953Z" fill="#333333"/>
</svg>
