<svg width="24" height="24" viewBox="0 0 24 24" fill="none" xmlns="http://www.w3.org/2000/svg">
<path d="M9.5 2C9.10218 2 8.72064 2.15804 8.43934 2.43934C8.15804 2.72064 8 3.10218 8 3.5V4.5C8 4.89782 8.15804 5.27936 8.43934 5.56066C8.72064 5.84196 9.10218 6 9.5 6H14.5C14.8978 6 15.2794 5.84196 15.5607 5.56066C15.842 5.27936 16 4.89782 16 4.5V3.5C16 3.10218 15.842 2.72064 15.5607 2.43934C15.2794 2.15804 14.8978 2 14.5 2H9.5Z" fill="#FFAAAA"/>
<path fill-rule="evenodd" clip-rule="evenodd" d="M6.5 4.03699C5.242 4.10699 4.448 4.30699 3.879 4.87699C3 5.75599 3 7.16999 3 9.99799V15.998C3 18.827 3 20.241 3.879 21.12C4.757 21.998 6.172 21.998 9 21.998H15C17.828 21.998 19.243 21.998 20.121 21.12C21 20.24 21 18.827 21 15.998V9.99799C21 7.16999 21 5.75599 20.121 4.87699C19.552 4.30699 18.758 4.10699 17.5 4.03699V4.49999C17.5 5.29564 17.1839 6.0587 16.6213 6.62131C16.0587 7.18392 15.2956 7.49999 14.5 7.49999H9.5C8.70435 7.49999 7.94129 7.18392 7.37868 6.62131C6.81607 6.0587 6.5 5.29564 6.5 4.49999V4.03699ZM7 13.75C6.80109 13.75 6.61032 13.829 6.46967 13.9697C6.32902 14.1103 6.25 14.3011 6.25 14.5C6.25 14.6989 6.32902 14.8897 6.46967 15.0303C6.61032 15.171 6.80109 15.25 7 15.25H15C15.1989 15.25 15.3897 15.171 15.5303 15.0303C15.671 14.8897 15.75 14.6989 15.75 14.5C15.75 14.3011 15.671 14.1103 15.5303 13.9697C15.3897 13.829 15.1989 13.75 15 13.75H7ZM7 17.25C6.80109 17.25 6.61032 17.329 6.46967 17.4697C6.32902 17.6103 6.25 17.8011 6.25 18C6.25 18.1989 6.32902 18.3897 6.46967 18.5303C6.61032 18.671 6.80109 18.75 7 18.75H12.5C12.6989 18.75 12.8897 18.671 13.0303 18.5303C13.171 18.3897 13.25 18.1989 13.25 18C13.25 17.8011 13.171 17.6103 13.0303 17.4697C12.8897 17.329 12.6989 17.25 12.5 17.25H7Z" fill="#FFAAAA"/>
</svg>
