<svg width="15" height="15" viewBox="0 0 15 15" fill="none" xmlns="http://www.w3.org/2000/svg">
<path fill-rule="evenodd" clip-rule="evenodd" d="M7.5 1.25C4.73875 1.25 2.5 3.75187 2.5 6.5625C2.5 9.35125 4.09562 12.3825 6.58562 13.5462C6.87182 13.6803 7.18398 13.7497 7.5 13.7497C7.81602 13.7497 8.12818 13.6803 8.41438 13.5462C10.9044 12.3825 12.5 9.35125 12.5 6.5625C12.5 3.75187 10.2613 1.25 7.5 1.25ZM7.5 7.5C7.83152 7.5 8.14946 7.3683 8.38388 7.13388C8.6183 6.89946 8.75 6.58152 8.75 6.25C8.75 5.91848 8.6183 5.60054 8.38388 5.36612C8.14946 5.1317 7.83152 5 7.5 5C7.16848 5 6.85054 5.1317 6.61612 5.36612C6.3817 5.60054 6.25 5.91848 6.25 6.25C6.25 6.58152 6.3817 6.89946 6.61612 7.13388C6.85054 7.3683 7.16848 7.5 7.5 7.5Z" fill="#999999"/>
</svg>
