<svg width="10" height="10" viewBox="0 0 10 10" fill="none" xmlns="http://www.w3.org/2000/svg">
<path fill-rule="evenodd" clip-rule="evenodd" d="M4.97368 0.520752H5.02534C5.86451 0.520752 6.52659 0.520752 7.00868 0.584502C7.48326 0.647002 7.90909 0.784502 8.11118 1.17742C8.14062 1.23409 8.16521 1.2927 8.18493 1.35325C8.32284 1.77409 8.11868 2.17242 7.82784 2.54909C7.53201 2.932 7.06368 3.39575 6.47034 3.98325L5.44368 4.99992L6.47034 6.01659C7.06368 6.60409 7.53201 7.06784 7.82784 7.45075C8.11868 7.82742 8.32284 8.22575 8.18493 8.64659C8.16486 8.70699 8.1402 8.76577 8.11118 8.82242C7.90909 9.21534 7.48326 9.35284 7.00909 9.41534C6.52659 9.47909 5.86451 9.47909 5.02576 9.47909H4.97368C4.13451 9.47909 3.47243 9.47909 2.98993 9.41534C2.51576 9.35284 2.08993 9.21534 1.88743 8.82242C1.85855 8.76576 1.83403 8.70698 1.81409 8.64659C1.67618 8.22575 1.88034 7.82742 2.17118 7.45075C2.46701 7.06784 2.93534 6.60409 3.52868 6.01659L4.55534 4.99992L3.52868 3.98325C2.93534 3.39575 2.46701 2.932 2.17118 2.54909C1.88034 2.17242 1.67618 1.77409 1.81409 1.35325C1.83409 1.2927 1.85854 1.23409 1.88743 1.17742C2.08993 0.784502 2.51576 0.647002 2.98993 0.584502C3.47243 0.520752 4.13493 0.520752 4.97368 0.520752ZM4.99951 4.56034L6.01201 3.55742C6.62784 2.94784 7.06618 2.51284 7.33284 2.167C7.60868 1.81034 7.62326 1.647 7.59118 1.54784C7.58159 1.5189 7.56975 1.49076 7.55576 1.46367C7.50701 1.36909 7.37701 1.26325 6.92743 1.20409C6.49076 1.14659 5.87034 1.14575 4.99951 1.14575C4.12868 1.14575 3.50784 1.14659 3.07159 1.20409C2.62159 1.26325 2.49201 1.36909 2.44326 1.46367C2.42927 1.49076 2.41743 1.5189 2.40784 1.54784C2.37576 1.647 2.39034 1.81034 2.66618 2.167C2.93284 2.51284 3.37118 2.94784 3.98701 3.55742L4.99951 4.56034ZM4.99951 5.4395L3.98701 6.44242C3.37118 7.052 2.93284 7.487 2.66618 7.83284C2.39034 8.1895 2.37576 8.35325 2.40784 8.452C2.41729 8.48117 2.42909 8.50922 2.44326 8.53617C2.49201 8.63075 2.62201 8.73659 3.07159 8.79575C3.50826 8.85325 4.12868 8.85409 4.99951 8.85409C5.87034 8.85409 6.49118 8.85325 6.92743 8.79575C7.37743 8.73659 7.50701 8.63075 7.55576 8.53617C7.56965 8.50922 7.58146 8.48117 7.59118 8.452C7.62326 8.35284 7.60868 8.1895 7.33284 7.83284C7.06618 7.487 6.62784 7.052 6.01201 6.44242L4.99951 5.4395ZM3.85368 2.29159C3.85368 2.20871 3.8866 2.12922 3.94521 2.07061C4.00381 2.01201 4.0833 1.97909 4.16618 1.97909H5.83284C5.91572 1.97909 5.99521 2.01201 6.05382 2.07061C6.11242 2.12922 6.14534 2.20871 6.14534 2.29159C6.14534 2.37447 6.11242 2.45395 6.05382 2.51256C5.99521 2.57116 5.91572 2.60409 5.83284 2.60409H4.16618C4.0833 2.60409 4.00381 2.57116 3.94521 2.51256C3.8866 2.45395 3.85368 2.37447 3.85368 2.29159ZM3.85368 7.70825C3.85368 7.62537 3.8866 7.54589 3.94521 7.48728C4.00381 7.42868 4.0833 7.39575 4.16618 7.39575H5.83284C5.91572 7.39575 5.99521 7.42868 6.05382 7.48728C6.11242 7.54589 6.14534 7.62537 6.14534 7.70825C6.14534 7.79113 6.11242 7.87062 6.05382 7.92922C5.99521 7.98783 5.91572 8.02075 5.83284 8.02075H4.16618C4.0833 8.02075 4.00381 7.98783 3.94521 7.92922C3.8866 7.87062 3.85368 7.79113 3.85368 7.70825Z" fill="#FF488E"/>
</svg>
