<svg width="17" height="17" viewBox="0 0 17 17" fill="none" xmlns="http://www.w3.org/2000/svg">
<path fill-rule="evenodd" clip-rule="evenodd" d="M6.99628 3H10.0037C12.8387 3 14.2561 3 15.1373 3.879C15.7448 4.4835 15.9331 5.34225 15.9923 6.74175C16.0036 7.01925 16.0096 7.15875 15.9578 7.251C15.9053 7.34325 15.6991 7.4595 15.2851 7.6905C15.0519 7.82051 14.8577 8.01043 14.7224 8.24065C14.5872 8.47086 14.5159 8.73301 14.5159 9C14.5159 9.26699 14.5872 9.52914 14.7224 9.75935C14.8577 9.98957 15.0519 10.1795 15.2851 10.3095C15.6991 10.5413 15.9061 10.6567 15.9578 10.749C16.0096 10.8412 16.0036 10.98 15.9916 11.2575C15.9331 12.6578 15.7441 13.5165 15.1373 14.121C14.2569 15 12.8394 15 10.0037 15H6.99628C4.16135 15 2.74388 15 1.86265 14.121C1.25517 13.5165 1.06692 12.6578 1.00767 11.2582C0.996423 10.9807 0.990423 10.8412 1.04217 10.749C1.09467 10.6567 1.30092 10.5413 1.71491 10.3095C1.9481 10.1795 2.14235 9.98957 2.27758 9.75935C2.4128 9.52914 2.4841 9.26699 2.4841 9C2.4841 8.73301 2.4128 8.47086 2.27758 8.24065C2.14235 8.01043 1.9481 7.82051 1.71491 7.6905C1.30092 7.4595 1.09392 7.34325 1.04217 7.251C0.990423 7.15875 0.996423 7.02 1.00842 6.74175C1.06692 5.34225 1.25592 4.48425 1.86265 3.879C2.74313 3 4.1606 3 6.99628 3ZM11.1609 6.3525C11.2663 6.45797 11.3254 6.60094 11.3254 6.75C11.3254 6.89906 11.2663 7.04203 11.1609 7.1475L6.64979 11.6475C6.54394 11.753 6.40061 11.8122 6.25118 11.8122C6.10175 11.8122 5.95841 11.753 5.85256 11.6475C5.74723 11.542 5.68806 11.3991 5.68806 11.25C5.68806 11.1009 5.74723 10.958 5.85256 10.8525L10.3637 6.3525C10.4696 6.24702 10.6129 6.1878 10.7623 6.1878C10.9118 6.1878 11.0551 6.24702 11.1609 6.3525ZM10.3862 11.625C10.4875 11.6295 10.5887 11.6135 10.6836 11.5778C10.7786 11.5422 10.8653 11.4877 10.9386 11.4176C11.0119 11.3475 11.0702 11.2633 11.1101 11.17C11.1499 11.0768 11.1705 10.9764 11.1705 10.875C11.1705 10.7736 11.1499 10.6732 11.1101 10.58C11.0702 10.4867 11.0119 10.4025 10.9386 10.3324C10.8653 10.2623 10.7786 10.2078 10.6836 10.1722C10.5887 10.1365 10.4875 10.1205 10.3862 10.125C9.97072 10.125 9.63397 10.461 9.63397 10.875C9.63397 11.289 9.97147 11.625 10.3862 11.625ZM6.62654 7.875C7.04203 7.875 7.37878 7.539 7.37878 7.125C7.37878 6.711 7.04203 6.375 6.62654 6.375C6.52523 6.37047 6.42405 6.38651 6.32911 6.42216C6.23417 6.4578 6.14744 6.51232 6.07414 6.58241C6.00085 6.6525 5.94252 6.73671 5.90266 6.82997C5.86281 6.92322 5.84226 7.02359 5.84226 7.125C5.84226 7.22641 5.86281 7.32678 5.90266 7.42003C5.94252 7.51329 6.00085 7.5975 6.07414 7.66759C6.14744 7.73768 6.23417 7.7922 6.32911 7.82784C6.42405 7.86349 6.52523 7.87953 6.62654 7.875Z" fill="#FF488E"/>
</svg>
