<svg width="15" height="15" viewBox="0 0 15 15" fill="none" xmlns="http://www.w3.org/2000/svg">
<mask id="mask0_1807_22890" style="mask-type:luminance" maskUnits="userSpaceOnUse" x="1" y="1" width="13" height="13">
<path d="M13.75 7.5C13.75 10.9519 10.9519 13.75 7.5 13.75C4.04813 13.75 1.25 10.9519 1.25 7.5C1.25 4.04813 4.04813 1.25 7.5 1.25C10.9519 1.25 13.75 4.04813 13.75 7.5Z" fill="white"/>
<path fill-rule="evenodd" clip-rule="evenodd" d="M7.5 4.53125C7.62432 4.53125 7.74355 4.58064 7.83146 4.66854C7.91936 4.75645 7.96875 4.87568 7.96875 5V7.30625L9.39375 8.73125C9.4398 8.77416 9.47674 8.82591 9.50236 8.88341C9.52798 8.94091 9.54176 9.00298 9.54287 9.06592C9.54398 9.12886 9.5324 9.19138 9.50883 9.24975C9.48525 9.30812 9.45016 9.36114 9.40565 9.40565C9.36114 9.45016 9.30812 9.48525 9.24975 9.50883C9.19138 9.5324 9.12886 9.54398 9.06592 9.54287C9.00298 9.54176 8.94091 9.52798 8.88341 9.50236C8.82591 9.47674 8.77416 9.4398 8.73125 9.39375L7.16875 7.83125C7.08082 7.74343 7.03136 7.62428 7.03125 7.5V5C7.03125 4.87568 7.08064 4.75645 7.16854 4.66854C7.25645 4.58064 7.37568 4.53125 7.5 4.53125Z" fill="black"/>
</mask>
<g mask="url(#mask0_1807_22890)">
<path d="M0 0H15V15H0V0Z" fill="#333333"/>
</g>
</svg>
