<svg width="22" height="22" viewBox="0 0 22 22" fill="none" xmlns="http://www.w3.org/2000/svg">
<path fill-rule="evenodd" clip-rule="evenodd" d="M9.15748 10.0008C9.37619 9.85552 9.63216 9.77633 9.89472 9.77276C10.1573 9.76918 10.4153 9.84136 10.6379 9.98067L13.728 11.8965C14.2211 12.2027 14.4375 12.7307 14.4375 13.2092C14.4375 13.6886 14.2211 14.2166 13.728 14.5218L10.6379 16.4377C10.1429 16.7438 9.57731 16.6943 9.15748 16.4175C8.94574 16.2756 8.7728 16.083 8.65434 15.8573C8.53588 15.6316 8.47566 15.3799 8.47915 15.125V11.2933C8.47915 10.7497 8.74406 10.2722 9.15748 10.0008ZM9.9119 11.1503C9.89448 11.1613 9.85415 11.2017 9.85415 11.2933V15.125C9.85415 15.2167 9.89448 15.257 9.9119 15.268L9.91281 15.2689L13.0038 13.3531C13.0231 13.3412 13.0625 13.299 13.0625 13.2092C13.0625 13.1193 13.0231 13.0781 13.0038 13.0652L9.91373 11.1494L9.9119 11.1503Z" fill="url(#paint0_linear_1985_11282)"/>
<path fill-rule="evenodd" clip-rule="evenodd" d="M7.97486 1.14583C7.77319 1.14583 7.61736 1.14583 7.48353 1.16049C6.88545 1.22456 6.33 1.50037 5.91747 1.93811C5.50495 2.37585 5.26254 2.94668 5.23403 3.54749C4.69611 3.70976 4.22372 4.03885 3.8851 4.4872C3.54649 4.93556 3.35919 5.47996 3.35028 6.04175C2.80028 6.20675 2.32453 6.468 1.93586 6.88783C1.33819 7.53408 1.15303 8.32883 1.14569 9.25833C1.13928 10.1521 1.29878 11.2814 1.49586 12.683L1.89919 15.5375C2.05319 16.6338 2.17878 17.5248 2.37403 18.2224C2.57844 18.953 2.88003 19.5534 3.43736 20.0154C3.99103 20.4737 4.64736 20.6708 5.42286 20.7643C6.17361 20.8542 7.11778 20.8542 8.29203 20.8542H13.7068C14.8819 20.8542 15.8261 20.8542 16.5759 20.7643C17.3524 20.6708 18.0087 20.4737 18.5624 20.0154C19.1197 19.5534 19.4213 18.9521 19.6257 18.2224C19.8209 17.5248 19.9465 16.6338 20.1014 15.5366L20.5039 12.683C20.7019 11.2805 20.8614 10.1521 20.854 9.25833C20.8467 8.32883 20.6615 7.53408 20.0639 6.88783C19.6752 6.468 19.1994 6.20766 18.6485 6.04175C18.6395 5.48023 18.4522 4.93612 18.1138 4.48797C17.7754 4.03981 17.3033 3.71079 16.7657 3.54841C16.7374 2.94743 16.4951 2.37639 16.0825 1.93846C15.67 1.50053 15.1144 1.22459 14.5162 1.16049C14.3814 1.14583 14.2265 1.14583 14.0249 1.14583H7.97486ZM17.2424 5.80066C17.1794 5.52001 17.0227 5.26919 16.7981 5.08955C16.5735 4.90992 16.2943 4.81219 16.0067 4.81249H5.99303C5.37978 4.81249 4.88203 5.24333 4.75644 5.80066C5.60528 5.72916 6.64478 5.72916 7.89786 5.72916H14.1019C15.354 5.72916 16.3935 5.72916 17.2433 5.80066M15.3714 3.43749C15.3228 3.19917 15.1996 2.9825 15.0196 2.81885C14.8397 2.65521 14.6123 2.55308 14.3704 2.52724C14.2432 2.51979 14.1156 2.51765 13.9882 2.52083H8.01153C7.75486 2.52083 7.68061 2.52174 7.62928 2.52724C7.38741 2.55308 7.16005 2.65521 6.98009 2.81885C6.80013 2.9825 6.67691 3.19917 6.62828 3.43749H15.3714ZM2.94511 7.82191C3.22286 7.52216 3.63994 7.32325 4.45119 7.21508C5.27711 7.10508 6.38353 7.10416 7.94919 7.10416H14.0505C15.6162 7.10416 16.7226 7.10599 17.5485 7.21508C18.3598 7.32325 18.7769 7.52216 19.0546 7.82191C19.3259 8.11524 19.4735 8.514 19.479 9.26933C19.4845 10.0485 19.3415 11.0752 19.1344 12.5473L18.7466 15.2973C18.5834 16.4532 18.4698 17.2526 18.302 17.8521C18.1398 18.4296 17.95 18.7367 17.6851 18.9557C17.4165 19.1794 17.0554 19.3224 16.4128 19.3994C15.7537 19.4782 14.8929 19.4792 13.6628 19.4792H8.33695C7.10678 19.4792 6.24603 19.4782 5.58694 19.3994C4.94528 19.3215 4.58319 19.1794 4.31461 18.9567C4.04969 18.7367 3.85994 18.4287 3.69769 17.8521C3.52994 17.2526 3.41628 16.4532 3.25311 15.2973L2.86536 12.5473C2.65819 11.0761 2.51519 10.0485 2.52069 9.26933C2.52619 8.514 2.67378 8.11433 2.94511 7.82191Z" fill="url(#paint1_linear_1985_11282)"/>
<defs>
<linearGradient id="paint0_linear_1985_11282" x1="11.4582" y1="9.77263" x2="11.4582" y2="16.647" gradientUnits="userSpaceOnUse">
<stop stop-color="#FF488E"/>
<stop offset="1" stop-color="#FFA2C2"/>
</linearGradient>
<linearGradient id="paint1_linear_1985_11282" x1="10.9999" y1="1.14583" x2="10.9999" y2="20.8542" gradientUnits="userSpaceOnUse">
<stop stop-color="#FF488E"/>
<stop offset="1" stop-color="#FFA2C2"/>
</linearGradient>
</defs>
</svg>
