<svg width="20" height="20" viewBox="0 0 20 20" fill="none" xmlns="http://www.w3.org/2000/svg">
<path d="M18 9C18 7.0866 17.9978 5.75202 17.8623 4.74512C17.7306 3.76693 17.4892 3.24833 17.1201 2.87891C16.7515 2.51005 16.2339 2.26926 15.2559 2.1377C14.2488 2.00225 12.9138 2 11 2H9C7.0866 2 5.75202 2.00218 4.74512 2.1377C3.76693 2.26939 3.24833 2.51078 2.87891 2.87988C2.51005 3.24852 2.26926 3.76607 2.1377 4.74414C2.00225 5.75124 2 7.08622 2 9V11C2 12.9134 2.00218 14.248 2.1377 15.2549C2.26939 16.2331 2.51078 16.7517 2.87988 17.1211C3.24852 17.49 3.76607 17.7307 4.74414 17.8623C5.75124 17.9978 7.08622 18 9 18H11C12.9134 18 14.248 17.9978 15.2549 17.8623C16.2331 17.7306 16.7517 17.4892 17.1211 17.1201C17.49 16.7515 17.7307 16.2339 17.8623 15.2559C17.9978 14.2488 18 12.9138 18 11V9ZM20 11C20 12.8572 20.0023 14.3511 19.8447 15.5225C19.6833 16.7224 19.3379 17.7329 18.5352 18.5352C17.7327 19.3369 16.7223 19.6822 15.5225 19.8437C14.3512 20.0014 12.8574 20 11 20H9C7.14278 20 5.64894 20.0023 4.47754 19.8447C3.2776 19.6833 2.26709 19.3379 1.46485 18.5352C0.663054 17.7327 0.317839 16.7223 0.156252 15.5225C-0.0014375 14.3512 1.79369e-06 12.8574 1.79369e-06 11V9C1.79369e-06 7.14278 -0.00227375 5.64894 0.155275 4.47754C0.316679 3.2776 0.662078 2.26709 1.46485 1.46485C2.26732 0.663053 3.27768 0.317839 4.47754 0.156252C5.64885 -0.00143749 7.14262 1.79369e-06 9 1.79369e-06H11C12.8572 1.79369e-06 14.3511 -0.00227375 15.5225 0.155275C16.7224 0.316679 17.7329 0.662078 18.5352 1.46485C19.3369 2.26732 19.6822 3.27768 19.8437 4.47754C20.0014 5.64885 20 7.14262 20 9V11Z" fill="#333333"/>
<path d="M14.5 7C15.3284 7 16 6.32843 16 5.5C16 4.67157 15.3284 4 14.5 4C13.6716 4 13 4.67157 13 5.5C13 6.32843 13.6716 7 14.5 7Z" fill="#333333"/>
<path d="M12 10C12 8.89543 11.1046 8 10 8C8.89543 8 8 8.89543 8 10C8 11.1046 8.89543 12 10 12C11.1046 12 12 11.1046 12 10ZM14 10C14 12.2091 12.2091 14 10 14C7.79086 14 6 12.2091 6 10C6 7.79086 7.79086 6 10 6C12.2091 6 14 7.79086 14 10Z" fill="#333333"/>
</svg>
