<svg width="24" height="24" viewBox="0 0 24 24" fill="none" xmlns="http://www.w3.org/2000/svg">
<path d="M15.8337 5.61133C15.8337 3.61704 14.2167 2.00012 12.2224 2C10.2281 2 8.61108 3.61697 8.61108 5.61133C8.6112 7.60559 10.2281 9.22266 12.2224 9.22266V10.7227L11.9587 10.7158C9.34546 10.5831 7.25034 8.48737 7.11792 5.87402L7.11108 5.61133C7.11108 2.78854 9.39962 0.5 12.2224 0.5L12.4851 0.506836C15.1857 0.64368 17.3337 2.87672 17.3337 5.61133L17.3269 5.87402C17.1901 8.57456 14.9569 10.7225 12.2224 10.7227V9.22266C14.2166 9.22254 15.8336 7.60552 15.8337 5.61133Z" fill="#FFA2C2"/>
<path d="M20.9444 17.75C20.9444 16.945 20.3484 15.9101 18.7149 14.9912C17.1286 14.099 14.8362 13.5001 12.2227 13.5C9.60903 13.5 7.31593 14.0989 5.72951 14.9912C4.096 15.9101 3.50001 16.945 3.50001 17.75C3.50001 19.4676 3.58059 20.1276 4.22462 20.6523C4.60458 20.9618 5.30235 21.3133 6.61038 21.5781C7.91175 21.8415 9.71888 22 12.2227 22V23.5L11.294 23.4922C2.00001 23.3382 2 20.8261 2 17.75C2 14.5747 6.57746 12 12.2227 12L12.7481 12.0078C18.149 12.1618 22.4444 14.6739 22.4444 17.75C22.4444 20.9252 22.4446 23.4999 12.2227 23.5V22C14.7263 22 16.5328 21.8415 17.8341 21.5781C19.1421 21.3133 19.8399 20.9618 20.2198 20.6523C20.8639 20.1276 20.9444 19.4677 20.9444 17.75Z" fill="#FFA2C2"/>
</svg>
