<svg width="27" height="26" viewBox="0 0 27 26" fill="none" xmlns="http://www.w3.org/2000/svg">
<path fill-rule="evenodd" clip-rule="evenodd" d="M7.22083 0C7.47062 0 7.71018 0.0978314 7.88681 0.271972C8.06344 0.446113 8.16267 0.682299 8.16267 0.928571V1.87324C8.99401 1.85714 9.90948 1.85714 10.9179 1.85714H16.0817C17.0901 1.85714 18.0056 1.85714 18.8369 1.87324V0.928571C18.8369 0.682299 18.9362 0.446113 19.1128 0.271972C19.2894 0.0978314 19.529 0 19.7788 0C20.0286 0 20.2681 0.0978314 20.4448 0.271972C20.6214 0.446113 20.7206 0.682299 20.7206 0.928571V1.95248C21.0471 1.97724 21.3565 2.0086 21.6487 2.04657C23.1205 2.24219 24.3122 2.65324 25.2528 3.57933C26.1921 4.50667 26.6091 5.68162 26.8075 7.13267C26.8694 7.59654 26.9142 8.10416 26.9418 8.65552C27.0102 8.8382 27.0185 9.03743 26.9657 9.22505C26.9996 10.2168 26.9996 11.3447 26.9996 12.6211V15.236C26.9996 17.5116 26.9996 19.3143 26.8075 20.7245C26.6091 22.1755 26.1921 23.3505 25.2528 24.2778C24.3122 25.2039 23.1205 25.615 21.6487 25.8106C20.2171 26 18.3899 26 16.0817 26H10.9179C8.60974 26 6.7813 26 5.35095 25.8106C3.87915 25.615 2.6874 25.2039 1.74681 24.2778C0.807477 23.3505 0.390553 22.1755 0.192137 20.7245C0 19.313 0 17.5116 0 15.236V12.6211C0 11.3447 -6.34109e-08 10.2168 0.0339064 9.22381C-0.0184968 9.03607 -0.00971053 8.83683 0.0590225 8.65429C0.0858128 8.10375 0.130184 7.59654 0.192137 7.13267C0.390553 5.68162 0.807477 4.50667 1.74681 3.57933C2.6874 2.65324 3.87915 2.24219 5.35095 2.04657C5.64397 2.0086 5.95331 1.97724 6.27898 1.95248V0.928571C6.27898 0.682299 6.37821 0.446113 6.55484 0.271972C6.73147 0.0978314 6.97103 0 7.22083 0ZM1.90002 9.90476C1.88369 10.7132 1.88369 11.6331 1.88369 12.6905V15.1667C1.88369 17.5277 1.88621 19.2053 2.05951 20.4781C2.22904 21.7224 2.54801 22.4405 3.07921 22.9642C3.61041 23.4879 4.33877 23.8024 5.60211 23.9695C6.89306 24.1404 8.59341 24.1429 10.9882 24.1429H16.0114C18.4062 24.1429 20.1078 24.1404 21.3988 23.9695C22.6608 23.8024 23.3892 23.4879 23.9204 22.9642C24.4516 22.4405 24.7706 21.7224 24.9401 20.4769C25.1134 19.2053 25.1159 17.5277 25.1159 15.1667V12.6905C25.1159 11.6331 25.1159 10.7132 25.0996 9.90476H1.90002ZM25.0129 8.04762H1.98667C2.00676 7.81321 2.03104 7.59035 2.05951 7.37905C2.22904 6.13476 2.54801 5.41667 3.07921 4.89295C3.61041 4.36924 4.33877 4.05476 5.60211 3.88762C6.89306 3.71676 8.59341 3.71429 10.9882 3.71429H16.0114C18.4062 3.71429 20.1078 3.71676 21.3988 3.88762C22.6608 4.05476 23.3892 4.36924 23.9204 4.89295C24.4516 5.41667 24.7706 6.13476 24.9401 7.38029C24.9686 7.59076 24.9928 7.81321 25.0129 8.04762Z" fill="#333333"/>
</svg>
