<svg width="20" height="20" viewBox="0 0 20 20" fill="none" xmlns="http://www.w3.org/2000/svg">
<path opacity="0.4" d="M12.5 7.5C13.8807 7.5 15 6.38071 15 5C15 3.61929 13.8807 2.5 12.5 2.5C11.1193 2.5 10 3.61929 10 5C10 6.38071 11.1193 7.5 12.5 7.5Z" fill="#FFAAAA"/>
<path opacity="0.4" d="M13.3346 16.6665C15.6358 16.6665 17.5013 15.5472 17.5013 14.1665C17.5013 12.7858 15.6358 11.6665 13.3346 11.6665C11.0334 11.6665 9.16797 12.7858 9.16797 14.1665C9.16797 15.5472 11.0334 16.6665 13.3346 16.6665Z" fill="#FFAAAA"/>
<path d="M7.5013 8.33329C9.34225 8.33329 10.8346 6.84091 10.8346 4.99996C10.8346 3.15901 9.34225 1.66663 7.5013 1.66663C5.66035 1.66663 4.16797 3.15901 4.16797 4.99996C4.16797 6.84091 5.66035 8.33329 7.5013 8.33329Z" fill="#FFAAAA"/>
<path d="M7.5013 17.5009C10.723 17.5009 13.3346 16.0085 13.3346 14.1676C13.3346 12.3266 10.723 10.8342 7.5013 10.8342C4.27964 10.8342 1.66797 12.3266 1.66797 14.1676C1.66797 16.0085 4.27964 17.5009 7.5013 17.5009Z" fill="#FFAAAA"/>
</svg>
