<svg width="22" height="22" viewBox="0 0 22 22" fill="none" xmlns="http://www.w3.org/2000/svg">
<path fill-rule="evenodd" clip-rule="evenodd" d="M11.0001 1.83333C6.95025 1.83333 3.66675 5.50274 3.66675 9.625C3.66675 13.7152 6.007 18.161 9.659 19.8678C10.0788 20.0644 10.5366 20.1663 11.0001 20.1663C11.4636 20.1663 11.9214 20.0644 12.3412 19.8678C15.9932 18.161 18.3334 13.7152 18.3334 9.625C18.3334 5.50274 15.0499 1.83333 11.0001 1.83333ZM11.0001 11C11.4863 11 11.9526 10.8068 12.2964 10.463C12.6403 10.1192 12.8334 9.65289 12.8334 9.16666C12.8334 8.68043 12.6403 8.21412 12.2964 7.8703C11.9526 7.52648 11.4863 7.33333 11.0001 7.33333C10.5139 7.33333 10.0475 7.52648 9.70372 7.8703C9.3599 8.21412 9.16675 8.68043 9.16675 9.16666C9.16675 9.65289 9.3599 10.1192 9.70372 10.463C10.0475 10.8068 10.5139 11 11.0001 11Z" fill="url(#paint0_linear_1985_10221)"/>
<defs>
<linearGradient id="paint0_linear_1985_10221" x1="11.0001" y1="1.83333" x2="11.0001" y2="20.1663" gradientUnits="userSpaceOnUse">
<stop stop-color="#FF488E"/>
<stop offset="1" stop-color="#FFA2C2"/>
</linearGradient>
</defs>
</svg>
