<svg width="24" height="24" viewBox="0 0 24 24" fill="none" xmlns="http://www.w3.org/2000/svg">
<g clip-path="url(#clip0_2035_2080)">
<path fill-rule="evenodd" clip-rule="evenodd" d="M3.7093 8.27186C3.7093 3.92647 7.47595 0.5 12 0.5C16.524 0.5 20.2907 3.92647 20.2907 8.27186C20.2907 12.3477 17.7628 17.1349 13.6849 18.8775C13.1521 19.1044 12.579 19.2213 12 19.2213C11.421 19.2213 10.8479 19.1044 10.3151 18.8775C6.23716 17.1349 3.7093 12.3487 3.7093 8.27186ZM12 2.10465C8.2526 2.10465 5.31395 4.91814 5.31395 8.27186C5.31395 11.832 7.56581 15.9581 10.9463 17.4023C11.2797 17.5433 11.638 17.6159 12 17.6159C12.362 17.6159 12.7203 17.5433 13.0537 17.4023C16.4342 15.9581 18.686 11.832 18.686 8.27186C18.686 4.91921 15.7474 2.10465 12 2.10465ZM3.0086 15.2061C3.15138 15.3637 3.22573 15.5716 3.2153 15.784C3.20487 15.9965 3.11051 16.1961 2.95298 16.339C2.34535 16.8888 2.10465 17.4152 2.10465 17.8837C2.10465 18.701 2.87916 19.7077 4.76516 20.556C6.57521 21.3712 9.13302 21.8953 12 21.8953C14.867 21.8953 17.4248 21.3712 19.2348 20.556C21.1208 19.7077 21.8953 18.701 21.8953 17.8837C21.8953 17.4152 21.6547 16.8888 21.047 16.339C20.8893 16.1961 20.7947 15.9965 20.7842 15.7839C20.7737 15.5713 20.848 15.3633 20.9909 15.2056C21.1337 15.0478 21.3334 14.9533 21.5459 14.9427C21.7585 14.9322 21.9665 15.0065 22.1243 15.1494C22.9405 15.8886 23.5 16.815 23.5 17.8837C23.5 19.7259 21.8793 21.1251 19.8938 22.0194C17.8324 22.9469 15.0403 23.5 12 23.5C8.95972 23.5 6.16763 22.9469 4.10619 22.0194C2.1207 21.1251 0.5 19.7259 0.5 17.8837C0.5 16.815 1.05949 15.8886 1.87572 15.1494C1.95387 15.0786 2.04521 15.0239 2.14451 14.9884C2.24381 14.953 2.34913 14.9374 2.45445 14.9427C2.55977 14.948 2.66301 14.9739 2.75828 15.0191C2.85355 15.0643 2.93791 15.1279 3.0086 15.2061Z" fill="#FFA2C2"/>
<path d="M14.6504 7.52058C14.6503 6.76876 14.311 6.4154 14.001 6.30281C13.6762 6.18495 13.1081 6.23152 12.4785 6.85555L11.9502 7.37996L11.4219 6.85555C10.7921 6.23125 10.2232 6.18488 9.89844 6.30281C9.58849 6.41555 9.2501 6.76907 9.25 7.52058C9.25 7.83847 9.44468 8.2696 9.87207 8.78133C10.2821 9.27225 10.8202 9.73505 11.3037 10.1026C11.5614 10.2985 11.6925 10.3955 11.7998 10.4542C11.875 10.4953 11.9068 10.5001 11.9502 10.5001C11.9935 10.5001 12.0254 10.4953 12.1006 10.4542C12.2079 10.3955 12.339 10.2985 12.5967 10.1026L12.9668 9.81062C13.3415 9.50247 13.7208 9.14958 14.0283 8.78133C14.4555 8.26976 14.6504 7.83858 14.6504 7.52058ZM16.1504 7.52058C16.1504 8.3755 15.6746 9.15054 15.1797 9.74324C14.6675 10.3566 14.0301 10.8963 13.5039 11.296C13.075 11.622 12.6261 12 11.9502 12.0001C11.2742 12.0001 10.8244 11.623 10.3955 11.297C9.86987 10.8973 9.2331 10.3567 8.7207 9.74324C8.22575 9.15066 7.75 8.37562 7.75 7.52058C7.75011 6.28013 8.36009 5.26549 9.38672 4.89266C10.2136 4.59241 11.1358 4.77321 11.9492 5.34773C12.7627 4.77273 13.6856 4.59249 14.5127 4.89266C15.5394 5.26546 16.1503 6.28009 16.1504 7.52058Z" fill="#FFA2C2"/>
</g>
<defs>
<clipPath id="clip0_2035_2080">
<rect width="24" height="24" fill="white"/>
</clipPath>
</defs>
</svg>
