<svg width="25" height="25" viewBox="0 0 25 25" fill="none" xmlns="http://www.w3.org/2000/svg">
<path fill-rule="evenodd" clip-rule="evenodd" d="M10.7958 6H14.2042C17.4171 6 19.0236 6 20.0223 6.95225C20.7108 7.60712 20.9242 8.53744 20.9913 10.0536C21.0041 10.3542 21.0109 10.5053 20.9522 10.6053C20.8927 10.7052 20.659 10.8311 20.1898 11.0814C19.9255 11.2222 19.7053 11.428 19.5521 11.6774C19.3988 11.9268 19.318 12.2108 19.318 12.5C19.318 12.7892 19.3988 13.0732 19.5521 13.3226C19.7053 13.572 19.9255 13.7778 20.1898 13.9186C20.659 14.1697 20.8936 14.2948 20.9522 14.3947C21.0109 14.4947 21.0041 14.645 20.9905 14.9456C20.9242 16.4626 20.71 17.3929 20.0223 18.0477C19.0244 19 17.418 19 14.2042 19H10.7958C7.58286 19 5.9764 19 4.97767 18.0477C4.28919 17.3929 4.07584 16.4626 4.0087 14.9464C3.99595 14.6458 3.98915 14.4947 4.04779 14.3947C4.10729 14.2948 4.34104 14.1697 4.81023 13.9186C5.07452 13.7778 5.29466 13.572 5.44792 13.3226C5.60117 13.0732 5.68198 12.7892 5.68198 12.5C5.68198 12.2108 5.60117 11.9268 5.44792 11.6774C5.29466 11.428 5.07452 11.2222 4.81023 11.0814C4.34104 10.8311 4.10644 10.7052 4.04779 10.6053C3.98915 10.5053 3.99595 10.355 4.00955 10.0536C4.07584 8.53744 4.29004 7.60794 4.97767 6.95225C5.97555 6 7.58201 6 10.7958 6ZM15.5157 9.63188C15.6351 9.74613 15.7022 9.90102 15.7022 10.0625C15.7022 10.224 15.6351 10.3789 15.5157 10.4931L10.4031 15.3681C10.2831 15.4824 10.1207 15.5465 9.95133 15.5465C9.78198 15.5465 9.61953 15.4824 9.49957 15.3681C9.38019 15.2539 9.31313 15.099 9.31313 14.9375C9.31313 14.776 9.38019 14.6211 9.49957 14.5069L14.6122 9.63188C14.7322 9.51761 14.8946 9.45345 15.064 9.45345C15.2333 9.45345 15.3958 9.51761 15.5157 9.63188ZM14.6377 15.3438C14.7525 15.3487 14.8672 15.3313 14.9748 15.2927C15.0824 15.254 15.1807 15.195 15.2638 15.1191C15.3468 15.0431 15.4129 14.9519 15.4581 14.8509C15.5033 14.7498 15.5266 14.6411 15.5266 14.5312C15.5266 14.4214 15.5033 14.3127 15.4581 14.2116C15.4129 14.1106 15.3468 14.0194 15.2638 13.9434C15.1807 13.8675 15.0824 13.8085 14.9748 13.7698C14.8672 13.7312 14.7525 13.7138 14.6377 13.7188C14.1668 13.7188 13.7852 14.0828 13.7852 14.5312C13.7852 14.9797 14.1677 15.3438 14.6377 15.3438ZM10.3767 11.2812C10.8476 11.2812 11.2293 10.9173 11.2293 10.4688C11.2293 10.0202 10.8476 9.65625 10.3767 9.65625C10.2619 9.65134 10.1473 9.66872 10.0397 9.70734C9.93206 9.74595 9.83376 9.80501 9.7507 9.88094C9.66763 9.95687 9.60152 10.0481 9.55635 10.1491C9.51118 10.2502 9.4879 10.3589 9.4879 10.4688C9.4879 10.5786 9.51118 10.6873 9.55635 10.7884C9.60152 10.8894 9.66763 10.9806 9.7507 11.0566C9.83376 11.1325 9.93206 11.1915 10.0397 11.2302C10.1473 11.2688 10.2619 11.2862 10.3767 11.2812Z" fill="url(#paint0_linear_1807_20245)"/>
<defs>
<linearGradient id="paint0_linear_1807_20245" x1="12.5" y1="6" x2="12.5" y2="19" gradientUnits="userSpaceOnUse">
<stop stop-color="#FF488E"/>
<stop offset="1" stop-color="#FFA2C2"/>
</linearGradient>
</defs>
</svg>
