<svg width="21" height="24" viewBox="0 0 21 24" fill="none" xmlns="http://www.w3.org/2000/svg">
<path d="M13.8337 5.61133C13.8337 3.61704 12.2167 2.00012 10.2224 2C8.22805 2 6.61108 3.61697 6.61108 5.61133C6.6112 7.60559 8.22812 9.22266 10.2224 9.22266V10.7227L9.95874 10.7158C7.34546 10.5831 5.25034 8.48737 5.11792 5.87402L5.11108 5.61133C5.11108 2.78854 7.39962 0.5 10.2224 0.5L10.4851 0.506836C13.1857 0.64368 15.3337 2.87672 15.3337 5.61133L15.3269 5.87402C15.1901 8.57456 12.9569 10.7225 10.2224 10.7227V9.22266C12.2166 9.22254 13.8336 7.60552 13.8337 5.61133Z" fill="#FF488E"/>
<path d="M18.9444 17.75C18.9444 16.945 18.3484 15.9101 16.7149 14.9912C15.1286 14.099 12.8362 13.5001 10.2227 13.5C7.60903 13.5 5.31593 14.0989 3.72951 14.9912C2.096 15.9101 1.50001 16.945 1.50001 17.75C1.50001 19.4676 1.58059 20.1276 2.22462 20.6523C2.60458 20.9618 3.30235 21.3133 4.61038 21.5781C5.91175 21.8415 7.71888 22 10.2227 22V23.5L9.29399 23.4922C5.72208e-06 23.3382 0 20.8261 0 17.75C5.72785e-08 14.5747 4.57746 12 10.2227 12L10.7481 12.0078C16.149 12.1618 20.4444 14.6739 20.4444 17.75C20.4444 20.9252 20.4446 23.4999 10.2227 23.5V22C12.7263 22 14.5328 21.8415 15.8341 21.5781C17.1421 21.3133 17.8399 20.9618 18.2198 20.6523C18.8639 20.1276 18.9444 19.4677 18.9444 17.75Z" fill="#FF488E"/>
</svg>
