<svg width="16" height="16" viewBox="0 0 16 16" fill="none" xmlns="http://www.w3.org/2000/svg">
<g clip-path="url(#clip0_1807_21838)">
<path fill-rule="evenodd" clip-rule="evenodd" d="M6.48719 1.60343C5.16623 1.91724 3.97461 2.63184 3.07562 3.6493C2.17662 4.66676 1.61422 5.9373 1.46548 7.28686H4.53519C4.74433 5.264 5.41405 3.32114 6.48719 1.60343ZM9.51119 1.60343C10.5883 3.32352 11.2561 5.26794 11.4632 7.28686H14.5329C14.3842 5.9373 13.8218 4.66676 12.9228 3.6493C12.0238 2.63184 10.8321 1.91724 9.51119 1.60343ZM10.0255 7.28686C9.80091 5.35374 9.10511 3.50534 7.99919 1.904C6.89326 3.50534 6.19746 5.35374 5.9729 7.28686H10.0255ZM5.9729 8.71543H10.0255C9.80091 10.6485 9.10511 12.4969 7.99919 14.0983C6.89326 12.4969 6.19746 10.6485 5.9729 8.71543ZM4.53519 8.71543H1.46548C1.61422 10.065 2.17662 11.3355 3.07562 12.353C3.97461 13.3704 5.16623 14.085 6.48719 14.3989C5.41007 12.6788 4.74225 10.7343 4.53519 8.71543ZM9.51119 14.3989C10.5883 12.6788 11.2561 10.7343 11.4632 8.71543H14.5329C14.3842 10.065 13.8218 11.3355 12.9228 12.353C12.0238 13.3704 10.8321 14.085 9.51119 14.3989ZM7.99919 16.0023C9.04991 16.0023 10.0904 15.7953 11.0611 15.3932C12.0318 14.9911 12.9139 14.4018 13.6569 13.6588C14.3998 12.9158 14.9892 12.0338 15.3913 11.063C15.7934 10.0923 16.0003 9.05187 16.0003 8.00114C16.0003 6.95042 15.7934 5.90998 15.3913 4.93924C14.9892 3.96849 14.3998 3.08646 13.6569 2.34348C12.9139 1.60051 12.0318 1.01115 11.0611 0.609051C10.0904 0.206956 9.04991 -1.5657e-08 7.99919 0C5.87715 3.16208e-08 3.84203 0.842975 2.34153 2.34348C0.841022 3.84399 -0.00195312 5.87911 -0.00195312 8.00114C-0.00195313 10.1232 0.841022 12.1583 2.34153 13.6588C3.84203 15.1593 5.87715 16.0023 7.99919 16.0023Z" fill="#333333"/>
</g>
<defs>
<clipPath id="clip0_1807_21838">
<rect width="16" height="16" fill="white"/>
</clipPath>
</defs>
</svg>
