<svg width="30" height="30" viewBox="0 0 30 30" fill="none" xmlns="http://www.w3.org/2000/svg">
<path d="M18.6459 24.8083C18.9637 25.6209 18.3786 26.5049 17.5229 26.5049C17.0283 26.5049 16.5836 26.1969 16.3999 25.7272L14.358 20.5058C14.3139 20.3931 14.2072 20.3191 14.0885 20.3191H6.62927C6.51057 20.3191 6.40383 20.3931 6.35974 20.5058L4.3178 25.7272C4.13412 26.1969 3.68938 26.5049 3.19481 26.5049C2.33914 26.5049 1.75404 25.6209 2.07183 24.8083L8.70013 7.85915C8.97143 7.16539 9.62835 6.71048 10.3589 6.71048C11.0894 6.71048 11.7463 7.16539 12.0176 7.85914L18.6459 24.8083ZM23.6637 15.3705C24.3317 15.3705 24.8732 15.9244 24.8732 16.6077V25.2677C24.8732 25.951 24.3317 26.5049 23.6637 26.5049C22.9957 26.5049 22.4541 25.951 22.4541 25.2677V16.6077C22.4541 15.9244 22.9957 15.3705 23.6637 15.3705ZM7.5596 17.4376C7.48332 17.6327 7.62375 17.8448 7.82912 17.8448H12.8886C13.094 17.8448 13.2344 17.6327 13.1581 17.4376L10.6284 10.9689C10.5311 10.72 10.1867 10.72 10.0893 10.9689L7.5596 17.4376Z" fill="url(#paint0_linear_2035_1233)"/>
<path d="M10.3591 6.21561C11.287 6.2158 12.1216 6.79348 12.4665 7.67459L19.0944 24.6248C19.5391 25.7624 18.72 26.9998 17.5222 26.9998C16.8303 26.9996 16.2082 26.5688 15.9509 25.9119L13.9577 20.8142H6.75946L4.7663 25.9119C4.50898 26.5688 3.8869 26.9996 3.19501 26.9998C1.99717 26.9998 1.17811 25.7624 1.62274 24.6248L8.25067 7.67459C8.59561 6.79333 9.43095 6.21561 10.3591 6.21561ZM23.6638 14.8758C24.5987 14.876 25.3569 15.651 25.3571 16.6072V25.2674C25.3571 26.2238 24.5988 26.9996 23.6638 26.9998C22.7286 26.9998 21.9704 26.2239 21.9704 25.2674V16.6072C21.9706 15.6509 22.7287 14.8758 23.6638 14.8758ZM10.3591 7.20486C9.82639 7.20486 9.34694 7.53785 9.14911 8.04373L2.52118 24.992C2.33051 25.4795 2.68161 26.0096 3.19501 26.0096C3.49156 26.0094 3.75869 25.8244 3.86884 25.5428L5.90985 20.3221L5.96161 20.2146C6.09905 19.9754 6.35165 19.8242 6.6286 19.824H14.0886C14.3655 19.8241 14.6181 19.9754 14.7556 20.2146L14.8073 20.3221L16.8483 25.5428C16.9585 25.8244 17.2256 26.0093 17.5222 26.0096C18.0355 26.0096 18.3867 25.4795 18.196 24.992L11.5681 8.04373C11.3703 7.538 10.8916 7.20505 10.3591 7.20486ZM23.6638 15.865C23.2631 15.865 22.9384 16.1975 22.9382 16.6072V25.2674C22.9382 25.6773 23.263 26.0096 23.6638 26.0096C24.0644 26.0094 24.3893 25.6772 24.3893 25.2674V16.6072C24.3891 16.1976 24.0643 15.8652 23.6638 15.865ZM9.69598 10.6687C9.99065 10.1608 10.7265 10.1608 11.0212 10.6687L11.0778 10.7849L13.6071 17.2547C13.8099 17.7745 13.4357 18.3395 12.8884 18.3396H7.8288C7.28152 18.3395 6.90733 17.7745 7.11005 17.2547L9.63934 10.7849L9.69598 10.6687ZM8.11395 17.3504H12.6032L10.3591 11.6121L8.11395 17.3504Z" fill="url(#paint1_linear_2035_1233)"/>
<path d="M23.3193 3.10809C23.2177 3.17852 23.1391 3.2785 23.0937 3.3951L22.7877 4.151C22.2735 5.43084 21.2991 6.46028 20.0651 7.02737L19.1966 7.42326C19.0853 7.47566 18.9909 7.55963 18.9248 7.66521C18.8586 7.77079 18.8235 7.89356 18.8235 8.01895C18.8235 8.14434 18.8586 8.26711 18.9248 8.37269C18.9909 8.47827 19.0853 8.56223 19.1966 8.61464L20.1159 9.03279C21.3196 9.58501 22.2772 10.5786 22.7998 11.8176L23.0986 12.5166C23.1451 12.6306 23.2235 12.728 23.324 12.7965C23.4246 12.8651 23.5426 12.9016 23.6634 12.9016C23.7842 12.9016 23.9023 12.8651 24.0028 12.7965C24.1033 12.728 24.1818 12.6306 24.2283 12.5166L24.5258 11.8164C25.049 10.5777 26.007 9.58446 27.211 9.03279L28.1278 8.61464C28.2388 8.56208 28.3328 8.47813 28.3987 8.37268C28.4646 8.26724 28.4996 8.14471 28.4996 8.01957C28.4996 7.89443 28.4646 7.7719 28.3987 7.66645C28.3328 7.56101 28.2388 7.47705 28.1278 7.4245L27.2606 7.02861C26.0266 6.46067 25.0526 5.43031 24.5391 4.14976L24.2331 3.3951C24.1877 3.2785 24.1091 3.17852 24.0076 3.10809C23.906 3.03765 23.7861 3 23.6634 3C23.5407 3 23.4208 3.03765 23.3193 3.10809Z" fill="#FFA2C2"/>
<defs>
<linearGradient id="paint0_linear_2035_1233" x1="13.4287" y1="6.71048" x2="13.4287" y2="26.5049" gradientUnits="userSpaceOnUse">
<stop stop-color="#FF488E"/>
<stop offset="1" stop-color="#FFA2C2"/>
</linearGradient>
<linearGradient id="paint1_linear_2035_1233" x1="13.4282" y1="6.21561" x2="13.4282" y2="26.9998" gradientUnits="userSpaceOnUse">
<stop stop-color="#FF488E"/>
<stop offset="1" stop-color="#FFA2C2"/>
</linearGradient>
</defs>
</svg>
