<svg width="30" height="26" viewBox="0 0 30 26" fill="none" xmlns="http://www.w3.org/2000/svg">
<path fill-rule="evenodd" clip-rule="evenodd" d="M6.10326 2.62589C3.78837 3.67882 2.09302 6.18472 2.09302 9.17264C2.09302 12.2245 3.34884 14.5776 5.14605 16.5945C6.6293 18.2559 8.42372 19.6338 10.1735 20.9757C10.5902 21.2952 11.0019 21.6137 11.4084 21.9314C12.1423 22.5078 12.7967 23.0121 13.4288 23.3802C14.0609 23.7483 14.5674 23.915 15 23.915C15.4326 23.915 15.9405 23.7483 16.5712 23.3802C17.2033 23.0121 17.8577 22.5078 18.5916 21.9314C18.9981 21.6128 19.4098 21.2947 19.8265 20.9771C21.5763 19.6324 23.3707 18.2559 24.854 16.5945C26.6526 14.5776 27.907 12.2245 27.907 9.17264C27.907 6.18611 26.2116 3.67882 23.8967 2.62589C21.6474 1.60214 18.6251 1.87301 15.7535 4.84426C15.6559 4.94509 15.5388 5.02529 15.4094 5.08007C15.2799 5.13485 15.1407 5.16308 15 5.16308C14.8593 5.16308 14.7201 5.13485 14.5906 5.08007C14.4612 5.02529 14.3441 4.94509 14.2465 4.84426C11.3749 1.87301 8.35256 1.60214 6.10326 2.62589ZM15 2.6759C11.774 -0.199504 8.1614 -0.602338 5.23256 0.729793C2.14326 2.13971 0 5.40684 0 9.17403C0 12.8759 1.54884 15.7013 3.58186 17.9794C5.20884 19.8033 7.2 21.3299 8.95953 22.6773C9.35953 22.9829 9.74372 23.2802 10.1121 23.5691C10.8279 24.1303 11.5953 24.7276 12.3726 25.1804C13.1498 25.6333 14.0372 26 15 26C15.9628 26 16.8502 25.6319 17.6274 25.1804C18.406 24.7276 19.1721 24.1303 19.8879 23.5691C20.2563 23.2802 20.6405 22.9829 21.0405 22.6773C22.7986 21.3299 24.7912 19.8019 26.4181 17.9794C28.4512 15.7013 30 12.8759 30 9.17403C30 5.40684 27.8581 2.13971 24.7674 0.732572C21.8386 -0.600949 18.226 -0.198115 15 2.6759Z" fill="#333333"/>
</svg>
