<svg width="24" height="26" viewBox="0 0 24 26" fill="none" xmlns="http://www.w3.org/2000/svg">
<path d="M22.5397 22.2742L23.2529 22.9874C23.4419 22.7982 23.5481 22.5416 23.5481 22.2742C23.5481 22.0067 23.4419 21.7502 23.2529 21.561L22.5397 22.2742ZM6.39186 2.42578C6.1242 2.42578 5.86749 2.53211 5.67822 2.72138C5.48895 2.91065 5.38262 3.16736 5.38262 3.43502C5.38262 3.70269 5.48895 3.95939 5.67822 4.14866C5.86749 4.33793 6.1242 4.44426 6.39186 4.44426V2.42578ZM20.5616 18.8697C20.4692 18.7705 20.3578 18.691 20.234 18.6358C20.1102 18.5807 19.9766 18.551 19.841 18.5486C19.7055 18.5462 19.5709 18.5712 19.4453 18.6219C19.3196 18.6727 19.2054 18.7482 19.1096 18.8441C19.0138 18.9399 18.9382 19.0541 18.8875 19.1797C18.8367 19.3054 18.8118 19.44 18.8142 19.5755C18.8166 19.711 18.8462 19.8447 18.9014 19.9685C18.9565 20.0923 19.0361 20.2037 19.1352 20.2961L20.5616 18.8697ZM19.1352 24.2523C19.0361 24.3447 18.9565 24.4561 18.9014 24.5799C18.8462 24.7037 18.8166 24.8374 18.8142 24.9729C18.8118 25.1084 18.8367 25.243 18.8875 25.3687C18.9382 25.4943 19.0138 25.6085 19.1096 25.7043C19.2054 25.8002 19.3196 25.8757 19.4453 25.9265C19.5709 25.9772 19.7055 26.0022 19.841 25.9998C19.9766 25.9974 20.1102 25.9677 20.234 25.9126C20.3578 25.8574 20.4692 25.7779 20.5616 25.6787L19.1352 24.2523ZM14.1294 21.265C13.8617 21.265 13.605 21.3713 13.4157 21.5606C13.2265 21.7498 13.1201 22.0065 13.1201 22.2742C13.1201 22.5419 13.2265 22.7986 13.4157 22.9878C13.605 23.1771 13.8617 23.2834 14.1294 23.2834V21.265ZM9.08317 23.2834C9.35084 23.2834 9.60755 23.1771 9.79682 22.9878C9.98609 22.7986 10.0924 22.5419 10.0924 22.2742C10.0924 22.0065 9.98609 21.7498 9.79682 21.5606C9.60755 21.3713 9.35084 21.265 9.08317 21.265V23.2834ZM10.4288 4.44426C10.6965 4.44426 10.9532 4.33793 11.1425 4.14866C11.3317 3.95939 11.4381 3.70269 11.4381 3.43502C11.4381 3.16736 11.3317 2.91065 11.1425 2.72138C10.9532 2.53211 10.6965 2.42578 10.4288 2.42578V4.44426ZM15.8115 2.42578C15.5438 2.42578 15.2871 2.53211 15.0978 2.72138C14.9085 2.91065 14.8022 3.16736 14.8022 3.43502C14.8022 3.70269 14.9085 3.95939 15.0978 4.14866C15.2871 4.33793 15.5438 4.44426 15.8115 4.44426V2.42578ZM5.71904 13.8639H17.8299V11.8454H5.71904V13.8639ZM23.2529 21.561L20.5616 18.8697L19.1352 20.2961L21.8265 22.9874L23.2529 21.561ZM21.8265 21.561L19.1352 24.2523L20.5616 25.6787L23.2529 22.9874L21.8265 21.561ZM23.549 8.14482C23.549 6.62803 22.9464 5.17338 21.8739 4.10085C20.8014 3.02832 19.3467 2.42578 17.8299 2.42578V4.44426C18.8114 4.44426 19.7526 4.83414 20.4466 5.52813C21.1406 6.22212 21.5305 7.16337 21.5305 8.14482H23.549ZM17.8299 13.8639C19.3467 13.8639 20.8014 13.2613 21.8739 12.1888C22.9464 11.1163 23.549 9.6616 23.549 8.14482H21.5305C21.5305 9.12626 21.1406 10.0675 20.4466 10.7615C19.7526 11.4555 18.8114 11.8454 17.8299 11.8454V13.8639ZM2.01848 17.5644C2.01848 16.583 2.40836 15.6417 3.10235 14.9477C3.79634 14.2537 4.73759 13.8639 5.71904 13.8639V11.8454C4.20225 11.8454 2.74759 12.4479 1.67507 13.5204C0.60254 14.593 0 16.0476 0 17.5644H2.01848ZM5.71904 21.265C4.73759 21.265 3.79634 20.8751 3.10235 20.1811C2.40836 19.4871 2.01848 18.5459 2.01848 17.5644H0C0 18.3154 0.147927 19.0591 0.435336 19.753C0.722744 20.4468 1.14401 21.0773 1.67507 21.6084C2.74759 22.6809 4.20225 23.2834 5.71904 23.2834V21.265ZM22.5397 21.265H14.1294V23.2834H22.5397V21.265ZM9.08317 21.265H5.71904V23.2834H9.08317V21.265ZM10.4288 2.42578H6.39186V4.44426H10.4288V2.42578ZM17.8299 2.42578H15.8115V4.44426H17.8299V2.42578Z" fill="#333333"/>
<path d="M5.6503 3.43372C5.65007 2.35781 4.77727 1.48569 3.7013 1.48569C2.62554 1.48592 1.7535 2.35796 1.75327 3.43372C1.75327 4.50969 2.62539 5.38249 3.7013 5.38273C4.77741 5.38273 5.6503 4.50983 5.6503 3.43372ZM7.136 3.43372C7.136 5.33036 5.59794 6.86842 3.7013 6.86842C1.80487 6.86818 0.267578 5.33021 0.267578 3.43372C0.267811 1.53743 1.80501 0.000232999 3.7013 0C5.59779 0 7.13576 1.53729 7.136 3.43372Z" fill="#333333"/>
</svg>
