<svg width="18" height="18" viewBox="0 0 18 18" fill="none" xmlns="http://www.w3.org/2000/svg">
<path d="M5.1 6.3V0.900003C5.1 0.645003 5.1832 0.431403 5.3496 0.259203C5.516 0.0870032 5.72169 0.000603103 5.96667 3.10344e-06C6.21164 -0.000596896 6.41762 0.0858032 6.5846 0.259203C6.75158 0.432603 6.83449 0.646203 6.83333 0.900003V6.3H7.7V0.900003C7.7 0.645003 7.7832 0.431403 7.9496 0.259203C8.116 0.0870032 8.32169 0.000603103 8.56667 3.10344e-06C8.81164 -0.000596896 9.01762 0.0858032 9.1846 0.259203C9.35158 0.432603 9.43449 0.646203 9.43333 0.900003V6.3C9.43333 7.14 9.18431 7.875 8.68627 8.505C8.18822 9.135 7.57058 9.555 6.83333 9.765V17.1C6.83333 17.355 6.75013 17.5689 6.58373 17.7417C6.41733 17.9145 6.21164 18.0006 5.96667 18C5.72169 17.9994 5.516 17.913 5.3496 17.7408C5.1832 17.5686 5.1 17.355 5.1 17.1V9.765C4.36333 9.555 3.74598 9.135 3.24793 8.505C2.74989 7.875 2.50058 7.14 2.5 6.3V0.900003C2.5 0.645003 2.5832 0.431403 2.7496 0.259203C2.916 0.0870032 3.12169 0.000603103 3.36667 3.10344e-06C3.61164 -0.000596896 3.81762 0.0858032 3.9846 0.259203C4.15158 0.432603 4.23449 0.646203 4.23333 0.900003V6.3H5.1ZM13.7667 10.8H12.0333C11.7878 10.8 11.5821 10.7136 11.4163 10.5408C11.2504 10.368 11.1672 10.1544 11.1667 9.9V4.5C11.1667 3.45 11.5388 2.4375 12.2829 1.4625C13.0271 0.487503 13.7961 3.10344e-06 14.59 3.10344e-06C14.85 3.10344e-06 15.0667 0.105003 15.24 0.315003C15.4133 0.525003 15.5 0.772503 15.5 1.0575V17.1C15.5 17.355 15.4168 17.5689 15.2504 17.7417C15.084 17.9145 14.8783 18.0006 14.6333 18C14.3884 17.9994 14.1827 17.913 14.0163 17.7408C13.8499 17.5686 13.7667 17.355 13.7667 17.1V10.8Z" fill="#999999"/>
</svg>
