<svg width="24" height="24" viewBox="0 0 24 24" fill="none" xmlns="http://www.w3.org/2000/svg">
<g clip-path="url(#clip0_2046_19142)">
<path d="M11.25 18C11.25 18.1989 11.329 18.3897 11.4697 18.5303C11.6103 18.671 11.8011 18.75 12 18.75C12.1989 18.75 12.3897 18.671 12.5303 18.5303C12.671 18.3897 12.75 18.1989 12.75 18V15C12.75 14.8011 12.671 14.6103 12.5303 14.4697C12.3897 14.329 12.1989 14.25 12 14.25C11.8011 14.25 11.6103 14.329 11.4697 14.4697C11.329 14.6103 11.25 14.8011 11.25 15V18Z" fill="#FFA2C2"/>
<path fill-rule="evenodd" clip-rule="evenodd" d="M12 0.5C11.2426 0.5 10.5547 0.717163 9.80698 1.07981C9.08595 1.4307 8.25153 1.94847 7.21065 2.5946L4.99944 3.96712C4.01526 4.57902 3.2247 5.06898 2.61707 5.53433C1.98698 6.01572 1.50344 6.50781 1.15363 7.14647C0.804884 7.78298 0.648698 8.46121 0.572744 9.26247C0.5 10.038 0.5 10.988 0.5 12.1787V13.9042C0.5 15.941 0.5 17.5489 0.663674 18.8059C0.830558 20.0949 1.18358 21.1358 1.97949 21.9585C2.7786 22.7854 3.79488 23.1555 5.05507 23.3299C6.2746 23.5 7.83433 23.5 9.79842 23.5H14.2016C16.1657 23.5 17.7254 23.5 18.9449 23.3299C20.204 23.1555 21.2214 22.7854 22.0216 21.9585C22.8164 21.1358 23.1694 20.0949 23.3374 18.8059C23.5 17.5489 23.5 15.941 23.5 13.9042V12.1787C23.5 10.988 23.5 10.0391 23.4273 9.26247C23.3524 8.46014 23.1951 7.78298 22.8464 7.14647C22.4966 6.50781 22.012 6.01679 21.3829 5.53433C20.7753 5.06791 19.9858 4.57902 19.0006 3.96712L16.7893 2.5946C15.7485 1.94847 14.914 1.4307 14.192 1.07981C13.4463 0.716093 12.7585 0.5 12 0.5ZM8.02047 3.98102C9.10628 3.30707 9.87116 2.83423 10.5098 2.52293C11.1313 2.22019 11.5721 2.10465 12 2.10465C12.4279 2.10465 12.8687 2.22019 13.4902 2.52293C14.1299 2.83316 14.8937 3.30707 15.9795 3.98102L18.1191 5.3086C19.1471 5.94726 19.8692 6.39549 20.4084 6.80842C20.9315 7.20958 21.2321 7.54014 21.4386 7.9167C21.645 8.29433 21.7659 8.73614 21.829 9.41223C21.8943 10.1054 21.8953 10.9794 21.8953 12.2182V13.8453C21.8953 15.9528 21.8932 17.4569 21.7456 18.5983C21.6001 19.7194 21.3252 20.3699 20.8684 20.8438C20.4137 21.3134 19.7954 21.5926 18.7246 21.7413C17.627 21.8932 16.1796 21.8953 14.1395 21.8953H9.86047C7.81935 21.8953 6.37302 21.8932 5.27544 21.7413C4.2046 21.5915 3.58628 21.3134 3.1327 20.8427C2.67484 20.3699 2.39991 19.7194 2.25549 18.5983C2.10572 17.4569 2.10465 15.9539 2.10465 13.8453V12.2182C2.10465 10.9794 2.10465 10.1054 2.17098 9.41223C2.23409 8.73614 2.35498 8.29433 2.56144 7.9167C2.76791 7.54014 3.06851 7.20958 3.5927 6.80842C4.13079 6.39549 4.85288 5.94726 5.88093 5.3086L8.02047 3.98102Z" fill="#FFA2C2"/>
</g>
<defs>
<clipPath id="clip0_2046_19142">
<rect width="24" height="24" fill="white"/>
</clipPath>
</defs>
</svg>
