<svg width="24" height="24" viewBox="0 0 24 24" fill="none" xmlns="http://www.w3.org/2000/svg">
<path fill-rule="evenodd" clip-rule="evenodd" d="M14.1003 2.39077C14.8335 1.67227 15.8206 1.27216 16.8471 1.27739C17.8736 1.28263 18.8566 1.69277 19.5824 2.41871C20.3082 3.14464 20.7182 4.12768 20.7232 5.1542C20.7283 6.18071 20.328 7.16774 19.6093 7.90077L12.0153 15.4948C11.5873 15.9228 11.3253 16.1848 11.0353 16.4118C10.6919 16.6793 10.3204 16.9086 9.92734 17.0958C9.59334 17.2548 9.24234 17.3718 8.66834 17.5628L5.99634 18.4538L5.35434 18.6678C5.07269 18.7619 4.7704 18.7756 4.48137 18.7075C4.19234 18.6394 3.92802 18.492 3.71804 18.2821C3.50807 18.0721 3.36075 17.8078 3.29263 17.5187C3.2245 17.2297 3.23825 16.9274 3.33234 16.6458L4.43734 13.3318C4.62834 12.7578 4.74534 12.4068 4.90434 12.0728C5.09185 11.68 5.32153 11.3088 5.58934 10.9658C5.81634 10.6748 6.07734 10.4128 6.50534 9.98577L14.1003 2.39077ZM5.96034 16.8848L5.11634 16.0388L5.84434 13.8538C6.05634 13.2178 6.14434 12.9588 6.25834 12.7188C6.39967 12.4234 6.57067 12.1468 6.77134 11.8888C6.93534 11.6788 7.12734 11.4848 7.60134 11.0098L13.4923 5.11977C13.7984 5.88452 14.2575 6.5787 14.8413 7.15977C15.4225 7.74327 16.1167 8.20197 16.8813 8.50777L10.9903 14.3978C10.5153 14.8728 10.3223 15.0648 10.1123 15.2278C9.85367 15.4291 9.57701 15.6004 9.28234 15.7418C9.04234 15.8558 8.78234 15.9438 8.14634 16.1558L5.96034 16.8848ZM18.0763 7.31177C17.9223 7.27778 17.7703 7.23471 17.6213 7.18277C16.9728 6.95738 16.3845 6.58659 15.9013 6.09877C15.4146 5.61476 15.044 5.02668 14.8173 4.37877C14.7651 4.2298 14.7217 4.07787 14.6873 3.92377L15.1603 3.45177C15.6121 3.0146 16.2176 2.77248 16.8462 2.77764C17.4748 2.78279 18.0763 3.0348 18.5208 3.47933C18.9653 3.92385 19.2173 4.52528 19.2225 5.15391C19.2276 5.78254 18.9855 6.38802 18.5483 6.83977L18.0763 7.31177ZM3.25034 21.9998C3.25034 21.8009 3.32936 21.6101 3.47001 21.4694C3.61066 21.3288 3.80143 21.2498 4.00034 21.2498H20.0003V22.7498H4.00034C3.80143 22.7498 3.61066 22.6708 3.47001 22.5301C3.32936 22.3895 3.25034 22.1987 3.25034 21.9998Z" fill="#FFAAAA"/>
</svg>
