<svg width="24" height="22" viewBox="0 0 24 22" fill="none" xmlns="http://www.w3.org/2000/svg">
<path d="M12 0C18.6292 0 24 4.17129 24 9.31465C24 14.458 18.6292 18.6293 12 18.6293C11.2708 18.6293 10.5583 18.5801 9.86667 18.4816C9.175 18.9615 5.175 21.726 4.79583 21.7793C4.79583 21.7793 4.64167 21.8367 4.50833 21.7629C4.375 21.6891 4.4 21.4881 4.4 21.4881C4.44167 21.2174 5.44167 17.8295 5.625 17.202C2.24583 15.5572 0 12.6369 0 9.31055C0 4.16719 5.37083 0 12 0ZM3.59167 6.52969C3.21667 6.52969 2.9125 6.8291 2.9125 7.19824C2.9125 7.56738 3.21667 7.8668 3.59167 7.8668H4.67083V11.915C4.67083 12.276 4.98333 12.5672 5.3625 12.5672C5.74167 12.5672 6.05417 12.276 6.05417 11.915V7.8668H7.13333C7.50833 7.8668 7.8125 7.56738 7.8125 7.19824C7.8125 6.8291 7.50833 6.52969 7.13333 6.52969H3.5875H3.59167ZM9.45833 6.52969C9.00833 6.53789 8.65417 6.87422 8.5375 7.20234L6.88333 11.4926C6.675 12.1365 6.85833 12.3744 7.04583 12.4605C7.17917 12.5221 7.33333 12.5549 7.4875 12.5549C7.775 12.5549 7.99583 12.44 8.0625 12.2555L8.40417 11.3695H10.5167L10.8583 12.2514C10.925 12.4359 11.1458 12.5508 11.4333 12.5508C11.5875 12.5508 11.7375 12.518 11.875 12.4564C12.0667 12.3703 12.25 12.1324 12.0375 11.4885L10.3833 7.20234C10.2667 6.87422 9.9125 6.53789 9.45833 6.52969ZM16.9958 6.52969C16.6125 6.52969 16.3042 6.8373 16.3042 7.21055V11.874C16.3042 12.2514 16.6167 12.5549 16.9958 12.5549C17.375 12.5549 17.6875 12.2473 17.6875 11.874V10.3893L17.9292 10.1514L19.55 12.2678C19.6833 12.44 19.8833 12.5385 20.1042 12.5385C20.2542 12.5385 20.4 12.4934 20.5208 12.4031C20.6667 12.2924 20.7625 12.1324 20.7875 11.952C20.8125 11.7715 20.7667 11.591 20.6542 11.4475L18.95 9.22441L20.5292 7.67402C20.6375 7.56738 20.6917 7.41973 20.6833 7.25977C20.675 7.0998 20.6 6.94805 20.4792 6.8291C20.35 6.70195 20.175 6.62813 20.0042 6.62813C19.8542 6.62813 19.7208 6.68145 19.6208 6.77988L17.6917 8.68301V7.21875C17.6917 6.84141 17.3792 6.53789 17 6.53789L16.9958 6.52969ZM13.1917 6.52969C12.8042 6.52969 12.4875 6.8373 12.4875 7.21055V11.8371C12.4875 12.1816 12.7833 12.4605 13.15 12.4646H15.3708C15.7375 12.4646 16.0333 12.1816 16.0333 11.8371C16.0333 11.4926 15.7333 11.2137 15.3708 11.2137H13.9V7.21055C13.9 6.8332 13.5833 6.52969 13.1917 6.52969ZM10.15 10.1637H8.76667L9.45833 8.23184L10.15 10.1637Z" fill="#333333"/>
</svg>
