<svg width="24" height="24" viewBox="0 0 24 24" fill="none" xmlns="http://www.w3.org/2000/svg">
<g clip-path="url(#clip0_38_319)">
<path fill-rule="evenodd" clip-rule="evenodd" d="M1.098 7.19645C0.5 8.2855 0.5 9.60225 0.5 12.2334V13.9838C0.5 18.4688 0.5 20.7124 1.8478 22.1062C3.1956 23.5 5.36335 23.5 9.7 23.5H14.3C18.6367 23.5 20.8055 23.5 22.1522 22.1062C23.4988 20.7124 23.5 18.4699 23.5 13.9838V12.2346C23.5 9.60225 23.5 8.28665 22.902 7.19645C22.3063 6.1051 21.2149 5.4289 19.0334 4.0742L16.7334 2.64705C14.4276 1.2153 13.2742 0.5 12 0.5C10.7258 0.5 9.5735 1.2153 7.2666 2.64705L4.9666 4.0742C2.78505 5.4289 1.69485 6.1051 1.098 7.19645ZM11.1375 18.9C11.1375 19.1287 11.2284 19.3481 11.3901 19.5099C11.5519 19.6716 11.7713 19.7625 12 19.7625C12.2287 19.7625 12.4481 19.6716 12.6099 19.5099C12.7716 19.3481 12.8625 19.1287 12.8625 18.9V15.45C12.8625 15.2213 12.7716 15.0019 12.6099 14.8401C12.4481 14.6784 12.2287 14.5875 12 14.5875C11.7713 14.5875 11.5519 14.6784 11.3901 14.8401C11.2284 15.0019 11.1375 15.2213 11.1375 15.45V18.9Z" fill="#FF488E"/>
</g>
<defs>
<clipPath id="clip0_38_319">
<rect width="24" height="24" fill="white"/>
</clipPath>
</defs>
</svg>
