<svg width="16" height="16" viewBox="0 0 16 16" fill="none" xmlns="http://www.w3.org/2000/svg">
<path d="M12.1718 2.33866C12.2632 2.37651 12.3413 2.4406 12.3962 2.52284C12.4511 2.60507 12.4805 2.70176 12.4805 2.80066V5.62933C12.4805 5.76193 12.4278 5.88911 12.334 5.98288C12.2402 6.07665 12.1131 6.12933 11.9805 6.12933H9.15179C9.05297 6.12924 8.95638 6.09987 8.87424 6.04492C8.79209 5.98997 8.72808 5.91192 8.69027 5.82061C8.65246 5.7293 8.64256 5.62883 8.66182 5.5319C8.68107 5.43497 8.72862 5.34592 8.79846 5.27599L9.86646 4.20666C8.88543 3.79584 7.79628 3.72008 6.76782 3.99112C5.73936 4.26216 4.82902 4.86487 4.17788 5.70582C3.52674 6.54678 3.17116 7.57903 3.16626 8.6426C3.16136 9.70616 3.5074 10.7416 4.15076 11.5886C4.79412 12.4355 5.69886 13.0466 6.72478 13.3271C7.7507 13.6076 8.8405 13.5419 9.82527 13.1401C10.8101 12.7384 11.6348 12.023 12.1717 11.1049C12.7087 10.1868 12.9278 9.11726 12.7951 8.06199C12.7814 7.93183 12.8192 7.80146 12.9005 7.69889C12.9819 7.59633 13.1002 7.52973 13.23 7.51341C13.3599 7.49709 13.491 7.53234 13.5951 7.6116C13.6993 7.69086 13.7682 7.80781 13.7871 7.93733C13.9494 9.2281 13.6755 10.5361 13.0091 11.6533C12.3426 12.7706 11.3218 13.633 10.1089 14.1035C8.89601 14.5739 7.56066 14.6255 6.31512 14.2499C5.06959 13.8742 3.98536 13.0931 3.23479 12.0305C2.48422 10.9679 2.11038 9.68489 2.17272 8.38545C2.23505 7.086 2.72998 5.84468 3.57881 4.85882C4.42765 3.87296 5.58168 3.19914 6.85745 2.94448C8.13322 2.68981 9.45751 2.86892 10.6198 3.45333L11.6265 2.44666C11.6964 2.37684 11.7855 2.32932 11.8824 2.3101C11.9794 2.29088 12.0805 2.30082 12.1718 2.33866Z" fill="#999999"/>
</svg>
