<svg width="18" height="18" viewBox="0 0 18 18" fill="none" xmlns="http://www.w3.org/2000/svg">
<path d="M16.2 1H3.6C2.61 1 1.8 1.8 1.8 2.77778V9.88889C1.8 11.8533 3.411 13.4444 5.4 13.4444H10.8C12.789 13.4444 14.4 11.8533 14.4 9.88889V7.22222H16.2C17.19 7.22222 18 6.42222 18 5.44444V2.77778C18 1.8 17.19 1 16.2 1ZM16.2 5.44444H14.4V2.77778H16.2V5.44444ZM0.9 17H15.3C15.795 17 16.2 16.6 16.2 16.1111C16.2 15.6222 15.795 15.2222 15.3 15.2222H0.9C0.405 15.2222 0 15.6222 0 16.1111C0 16.6 0.405 17 0.9 17Z" fill="white"/>
</svg>
