<svg width="18" height="22" viewBox="0 0 18 22" fill="none" xmlns="http://www.w3.org/2000/svg">
<g clip-path="url(#clip0_2174_2073)">
<path fill-rule="evenodd" clip-rule="evenodd" d="M11.0999 1.39099C11.833 0.672488 12.8201 0.272377 13.8466 0.277608C14.8731 0.282839 15.8561 0.692988 16.5819 1.41892C17.3077 2.14485 17.7177 3.1279 17.7227 4.15441C17.7278 5.18093 17.3275 6.16796 16.6089 6.90099L9.01485 14.495C8.58685 14.923 8.32485 15.185 8.03485 15.412C7.69143 15.6795 7.31991 15.9089 6.92685 16.096C6.59285 16.255 6.24185 16.372 5.66785 16.563L2.99585 17.454L2.35385 17.668C2.07221 17.7621 1.76991 17.7758 1.48088 17.7077C1.19186 17.6396 0.927529 17.4923 0.717555 17.2823C0.507581 17.0723 0.360267 16.808 0.292138 16.519C0.224009 16.2299 0.237762 15.9276 0.331853 15.646L1.43685 12.332C1.62785 11.758 1.74485 11.407 1.90385 11.073C2.09136 10.6802 2.32105 10.309 2.58885 9.96598C2.81585 9.67498 3.07685 9.41298 3.50485 8.98598L11.0999 1.39099ZM2.95985 15.885L2.11585 15.039L2.84385 12.854C3.05585 12.218 3.14385 11.959 3.25785 11.719C3.39919 11.4237 3.57019 11.147 3.77085 10.889C3.93485 10.679 4.12685 10.485 4.60085 10.01L10.4919 4.11998C10.798 4.88473 11.257 5.57891 11.8409 6.15999C12.422 6.74348 13.1162 7.20218 13.8809 7.50799L7.98985 13.398C7.51485 13.873 7.32185 14.065 7.11185 14.228C6.85319 14.4293 6.57652 14.6007 6.28185 14.742C6.04185 14.856 5.78185 14.944 5.14585 15.156L2.95985 15.885ZM15.0759 6.31199C14.9218 6.278 14.7698 6.23492 14.6209 6.18299C13.9723 5.95759 13.384 5.5868 12.9009 5.09899C12.4141 4.61497 12.0435 4.02689 11.8169 3.37899C11.7646 3.23002 11.7212 3.07808 11.6869 2.92399L12.1599 2.45198C12.6116 2.01481 13.2171 1.7727 13.8457 1.77785C14.4743 1.78301 15.0758 2.03502 15.5203 2.47954C15.9648 2.92407 16.2168 3.52549 16.222 4.15412C16.2271 4.78275 15.985 5.38823 15.5479 5.83999L15.0759 6.31199ZM0.249852 21C0.249852 20.8011 0.32887 20.6103 0.469522 20.4697C0.610175 20.329 0.80094 20.25 0.999852 20.25H16.9999V21.75H0.999852C0.80094 21.75 0.610175 21.671 0.469522 21.5303C0.32887 21.3897 0.249852 21.1989 0.249852 21Z" fill="url(#paint0_linear_2174_2073)"/>
</g>
<defs>
<linearGradient id="paint0_linear_2174_2073" x1="8.98614" y1="0.277557" x2="8.98614" y2="21.75" gradientUnits="userSpaceOnUse">
<stop stop-color="#FF488E"/>
<stop offset="1" stop-color="#FFA2C2"/>
</linearGradient>
<clipPath id="clip0_2174_2073">
<rect width="18" height="22" fill="white"/>
</clipPath>
</defs>
</svg>
