<svg width="17" height="17" viewBox="0 0 17 17" fill="none" xmlns="http://www.w3.org/2000/svg">
<path fill-rule="evenodd" clip-rule="evenodd" d="M15.5846 8.49984C15.5846 12.412 12.4134 15.5832 8.5013 15.5832C4.58918 15.5832 1.41797 12.412 1.41797 8.49984C1.41797 4.58771 4.58918 1.4165 8.5013 1.4165C12.4134 1.4165 15.5846 4.58771 15.5846 8.49984ZM8.5013 12.5728C8.6422 12.5728 8.77732 12.5168 8.87695 12.4172C8.97658 12.3175 9.03255 12.1824 9.03255 12.0415V7.7915C9.03255 7.65061 8.97658 7.51548 8.87695 7.41585C8.77732 7.31623 8.6422 7.26025 8.5013 7.26025C8.36041 7.26025 8.22528 7.31623 8.12565 7.41585C8.02602 7.51548 7.97005 7.65061 7.97005 7.7915V12.0415C7.97005 12.3348 8.20805 12.5728 8.5013 12.5728ZM8.5013 4.95817C8.68916 4.95817 8.86933 5.0328 9.00217 5.16564C9.13501 5.29848 9.20964 5.47864 9.20964 5.6665C9.20964 5.85437 9.13501 6.03453 9.00217 6.16737C8.86933 6.30021 8.68916 6.37484 8.5013 6.37484C8.31344 6.37484 8.13327 6.30021 8.00044 6.16737C7.8676 6.03453 7.79297 5.85437 7.79297 5.6665C7.79297 5.47864 7.8676 5.29848 8.00044 5.16564C8.13327 5.0328 8.31344 4.95817 8.5013 4.95817Z" fill="#FF488E"/>
</svg>
