<svg width="15" height="15" viewBox="0 0 15 15" fill="none" xmlns="http://www.w3.org/2000/svg">
<path d="M5.9375 1.25C5.68886 1.25 5.4504 1.34877 5.27459 1.52459C5.09877 1.7004 5 1.93886 5 2.1875V2.8125C5 3.06114 5.09877 3.2996 5.27459 3.47541C5.4504 3.65123 5.68886 3.75 5.9375 3.75H9.0625C9.31114 3.75 9.5496 3.65123 9.72541 3.47541C9.90123 3.2996 10 3.06114 10 2.8125V2.1875C10 1.93886 9.90123 1.7004 9.72541 1.52459C9.5496 1.34877 9.31114 1.25 9.0625 1.25H5.9375Z" fill="#333333"/>
<path fill-rule="evenodd" clip-rule="evenodd" d="M4.0625 2.52312C3.27625 2.56687 2.78 2.69187 2.42437 3.04812C1.875 3.5975 1.875 4.48125 1.875 6.24875V9.99875C1.875 11.7669 1.875 12.6506 2.42437 13.2C2.97312 13.7487 3.8575 13.7487 5.625 13.7487H9.375C11.1425 13.7487 12.0269 13.7487 12.5756 13.2C13.125 12.65 13.125 11.7669 13.125 9.99875V6.24875C13.125 4.48125 13.125 3.5975 12.5756 3.04812C12.22 2.69187 11.7238 2.56687 10.9375 2.52312V2.8125C10.9375 3.30978 10.74 3.78669 10.3883 4.13832C10.0367 4.48996 9.55978 4.6875 9.0625 4.6875H5.9375C5.44022 4.6875 4.96331 4.48996 4.61167 4.13832C4.26004 3.78669 4.0625 3.30978 4.0625 2.8125V2.52312ZM4.375 8.59375C4.25068 8.59375 4.13145 8.64314 4.04354 8.73104C3.95564 8.81895 3.90625 8.93818 3.90625 9.0625C3.90625 9.18682 3.95564 9.30605 4.04354 9.39396C4.13145 9.48186 4.25068 9.53125 4.375 9.53125H9.375C9.49932 9.53125 9.61855 9.48186 9.70646 9.39396C9.79436 9.30605 9.84375 9.18682 9.84375 9.0625C9.84375 8.93818 9.79436 8.81895 9.70646 8.73104C9.61855 8.64314 9.49932 8.59375 9.375 8.59375H4.375ZM4.375 10.7812C4.25068 10.7812 4.13145 10.8306 4.04354 10.9185C3.95564 11.0065 3.90625 11.1257 3.90625 11.25C3.90625 11.3743 3.95564 11.4935 4.04354 11.5815C4.13145 11.6694 4.25068 11.7187 4.375 11.7187H7.8125C7.93682 11.7187 8.05605 11.6694 8.14396 11.5815C8.23186 11.4935 8.28125 11.3743 8.28125 11.25C8.28125 11.1257 8.23186 11.0065 8.14396 10.9185C8.05605 10.8306 7.93682 10.7812 7.8125 10.7812H4.375Z" fill="#333333"/>
</svg>
