<svg width="19" height="24" viewBox="0 0 19 24" fill="none" xmlns="http://www.w3.org/2000/svg">
<path fill-rule="evenodd" clip-rule="evenodd" d="M0.841187 10.143C0.841187 5.244 4.70551 1.25 9.50004 1.25C14.2946 1.25 18.1589 5.244 18.1589 10.143C18.1589 12.508 17.4919 15.048 16.3123 17.242C15.1347 19.433 13.4148 21.337 11.2625 22.354C10.7108 22.615 10.1092 22.7503 9.50004 22.7503C8.89092 22.7503 8.28924 22.615 7.73759 22.354C5.58525 21.337 3.86535 19.434 2.68775 17.242C1.50817 15.048 0.841187 12.508 0.841187 10.143ZM9.50004 2.75C5.54962 2.75 2.32556 6.047 2.32556 10.143C2.32556 12.24 2.92228 14.535 3.99202 16.526C5.06275 18.519 6.57681 20.15 8.36598 20.995C8.72076 21.163 9.10776 21.25 9.49955 21.25C9.89134 21.25 10.2783 21.163 10.6331 20.995C12.4233 20.15 13.9373 18.519 15.0081 16.526C16.0778 14.536 16.6745 12.24 16.6745 10.143C16.6745 6.047 13.4505 2.75 9.50004 2.75ZM9.50004 7.75C9.20764 7.75 8.91811 7.8082 8.64797 7.92127C8.37783 8.03434 8.13238 8.20008 7.92562 8.40901C7.71887 8.61794 7.55486 8.86598 7.44297 9.13896C7.33107 9.41194 7.27348 9.70453 7.27348 10C7.27348 10.2955 7.33107 10.5881 7.44297 10.861C7.55486 11.134 7.71887 11.3821 7.92562 11.591C8.13238 11.7999 8.37783 11.9657 8.64797 12.0787C8.91811 12.1918 9.20764 12.25 9.50004 12.25C10.0906 12.25 10.6569 12.0129 11.0745 11.591C11.492 11.169 11.7266 10.5967 11.7266 10C11.7266 9.40326 11.492 8.83097 11.0745 8.40901C10.6569 7.98705 10.0906 7.75 9.50004 7.75ZM5.7891 10C5.7891 9.00544 6.18008 8.05161 6.87601 7.34835C7.57195 6.64509 8.51584 6.25 9.50004 6.25C10.4842 6.25 11.4281 6.64509 12.1241 7.34835C12.82 8.05161 13.211 9.00544 13.211 10C13.211 10.9946 12.82 11.9484 12.1241 12.6517C11.4281 13.3549 10.4842 13.75 9.50004 13.75C8.51584 13.75 7.57195 13.3549 6.87601 12.6517C6.18008 11.9484 5.7891 10.9946 5.7891 10Z" fill="#FF488E"/>
</svg>
