<svg width="18" height="18" viewBox="0 0 18 18" fill="none" xmlns="http://www.w3.org/2000/svg">
<path d="M9.00004 1.5V13.5M9.00004 13.5V16.5M9.00004 13.5L11.25 15.75M9.00004 13.5L6.75004 15.75M11.25 2.25L9.00004 4.5L6.75004 2.25M2.50504 5.25L5.10304 6.75M5.10304 6.75L12.897 11.25M5.10304 6.75L4.27954 3.6765M5.10304 6.75L2.02954 7.5735M12.897 11.25L15.495 12.75M12.897 11.25L15.9705 10.4265M12.897 11.25L13.7205 14.3243M15.495 5.25L12.897 6.75M12.897 6.75L5.10304 11.25M12.897 6.75L13.7205 3.6765M12.897 6.75L15.9705 7.5735M5.10304 11.25L2.50504 12.75M5.10304 11.25L2.02954 10.4265M5.10304 11.25L4.27954 14.325" stroke="white" stroke-width="1.5" stroke-linecap="round"/>
</svg>
